/* XPM */
static char * CapyAL2_xpm[] = {
"32 32 117 2",
"  	c #2F2E2F",
". 	c #564064",
"+ 	c #3E2F5A",
"@ 	c #39314B",
"# 	c #302A3E",
"$ 	c #FF5808",
"% 	c #FF9921",
"& 	c #FF840C",
"* 	c #D32C04",
"= 	c #FFB010",
"- 	c #FFC525",
"; 	c #FFF129",
"> 	c #FF6D1D",
", 	c #E84119",
"' 	c #FFFF31",
") 	c #FFFF2D",
"! 	c #FFDA3A",
"~ 	c #FFEF4F",
"{ 	c #FFC34B",
"] 	c #FF8232",
"^ 	c #FFFF42",
"/ 	c #FFFF46",
"( 	c #84844A",
"_ 	c #848443",
": 	c #FFFF53",
"< 	c #FFFF3E",
"[ 	c #FF6B43",
"} 	c #FFED75",
"| 	c #FFFF85",
"1 	c #84845F",
"2 	c #5D5D4F",
"3 	c #848445",
"4 	c #5D5D49",
"5 	c #848449",
"6 	c #84844E",
"7 	c #5D574C",
"8 	c #514F4C",
"9 	c #84844F",
"0 	c #3F3F3F",
"a 	c #7E7E7E",
"b 	c #FFFF79",
"c 	c #84845C",
"d 	c #5D5D52",
"e 	c #51514C",
"f 	c #5D5C48",
"g 	c #51504B",
"h 	c #514D4B",
"i 	c #4D4D4C",
"j 	c #4D4C4C",
"k 	c #5D5D4D",
"l 	c #848451",
"m 	c #000000",
"n 	c #151515",
"o 	c #FFC171",
"p 	c #FFFF8E",
"q 	c #848462",
"r 	c #51514D",
"s 	c #5D4D45",
"t 	c #282828",
"u 	c #514C4B",
"v 	c #4C4C4C",
"w 	c #848041",
"x 	c #885B39",
"y 	c #FFAC5C",
"z 	c #51504C",
"A 	c #514C4A",
"B 	c #040404",
"C 	c #C1743D",
"D 	c #FF9747",
"E 	c #514F4D",
"F 	c #594945",
"G 	c #D78244",
"H 	c #564C48",
"I 	c #848455",
"J 	c #847846",
"K 	c #514D4A",
"L 	c #504B4A",
"M 	c #8A5839",
"N 	c #504C4B",
"O 	c #84845A",
"P 	c #847240",
"Q 	c #5D5848",
"R 	c #5D5146",
"S 	c #764235",
"T 	c #664E43",
"U 	c #4B4B4B",
"V 	c #847157",
"W 	c #846B39",
"X 	c #5D5C54",
"Y 	c #514F4A",
"Z 	c #4D4D4B",
"` 	c #484848",
" .	c #5D5551",
"..	c #4D4C4B",
"+.	c #514D4C",
"@.	c #5D514D",
"#.	c #846356",
"$.	c #84563D",
"%.	c #5D4F4B",
"&.	c #845C50",
"*.	c #FF8058",
"=.	c #5D5646",
"-.	c #51514B",
";.	c #848447",
">.	c #514E4A",
",.	c #84714C",
"'.	c #845649",
").	c #4F2C14",
"!.	c #5D564A",
"~.	c #514F4B",
"{.	c #5D5A4A",
"].	c #51504A",
"^.	c #5D5A46",
"/.	c #5D5D4A",
"(.	c #848442",
"_.	c #FFDC14",
":.	c #FFAE36",
"                                                                ",
". . . . . . . . . . . .       . . . . . . . . . . . . . .       ",
". . . . . + . . . . . . .   . . . . . . + . . . + . . . . .   . ",
"+ + . + + + + . + + + . .   . . + + . + + + . + + + + + + .   . ",
"+ + + + + @ + + + + @ @ .   . @ @ + + + + + + + + + + @ + +   + ",
"@ @ @ @ @ @ @ @ @ @ @ @ @   @ @ @ @ @ @ + + @ @ @ @ @ @ @ @   @ ",
"@ @ @ @ @ @ @ @ @ @ @ @       @ @ @ @ @ @ @ @ @ @ @ @ @ @       ",
"                                                                ",
"# # # # # # # # # # # # # # # # # # # # # # # # # # # # # # # # ",
"# # # # # # # # # # # # # # # # # # # # # # # # # # # # # # # # ",
"# # # # # # # # # # # # $ $ % & $ * # # # # # # # # # # # # # # ",
"# # # # # # # # # # $ = - - ; - - & > > > > , # # # # # # # # # ",
"# # # # # # # # # * - ; ; ' ; ) ! ! ~ { { % % $ * # # # # # # # ",
"# # # # # # # # * ] ^ / ( _ _ ^ : ~ ~ { : < ; > * # # # # # # # ",
"# # # # # # # # [ } | 1 2 3 4 5 6 7 8 9 : ^ ) - * * # # # # # # ",
"# # # # # # # 0 a b c d d e f g h i j e k l / ) & * m # # # # # ",
"# # # # # # n [ o p q r i i s t u j i v i k w ; - x m m # # # # ",
"# # # # # n , [ y o r e z A # B C v v v v i f ; ; , * m # # # # ",
"# # # # # n , , D y E 8 A F m m G C H v v v 6 I ~ , * * # # # # ",
"# # # # # n , % % ; J K L t m G G G M N v v O O y ] * * # # # # ",
"# # # # # # , % - P Q R S C G G G G T U v v V o o ] * * # # # # ",
"# # # # # * * % P W K K F * G G G G C v v i X y y ] * * # # # # ",
"# # # # # * * & W Y Y Z F * G G G C G ` v v  .o [ , * # # # # # ",
"# # # # # # * = = Y Z Z ..F G G M M M U +.@.#.0 n # # # # # # # ",
"# # # # # # * $ & W Y v v ..$.$.R s A 7 %.&.*.[ # # # # # # # # ",
"# # # # # # m * $ & =.v i i -.;.>.Y Y f ,.'.[ [ * # # # # # # # ",
"# # # # # # m ).* $ = !.~.-.-.5 {.].^.w w % , , * # # # # # # # ",
"# # # # # # m ).).G & !./.{.;.5 J (._.; ; % , * * # # # # # # # ",
"# # # # # # m m ).).* ] :.! ! J J ) _.= & > * * # # # # # # # # ",
"# # # # # # # m m ).)., ] ! :.] % & & $ * * # # # # # # # # # # ",
"# # # # # # # # m m m m n n , , , ).).m # # # # # # # # # # # # ",
"# # # # # # # # # # m m m # # # m m m m # # # # # # # # # # # # "};
