/* XPM */
static char * CapyAU1_xpm[] = {
"32 32 107 2",
"  	c #2F2E2F",
". 	c #564064",
"+ 	c #3E2F5A",
"@ 	c #39314B",
"# 	c #302A3E",
"$ 	c #FF5408",
"% 	c #FFBB23",
"& 	c #FF911F",
"* 	c #E63D17",
"= 	c #D32A04",
"- 	c #FFA810",
"; 	c #FFE527",
"> 	c #FFFF2B",
", 	c #FFCE36",
"' 	c #FFE149",
") 	c #FF671B",
"! 	c #FFFF2F",
"~ 	c #FFFF3E",
"{ 	c #FFFF33",
"] 	c #FFFF51",
"^ 	c #FFFF4D",
"/ 	c #F9502A",
"( 	c #FFFF73",
"_ 	c #FFFF7B",
": 	c #7D7D56",
"< 	c #7D7D4C",
"[ 	c #7D7D41",
"} 	c #FFF83A",
"| 	c #262626",
"1 	c #FFB367",
"2 	c #FFFF77",
"3 	c #7D7D57",
"4 	c #56564D",
"5 	c #4B4B47",
"6 	c #565644",
"7 	c #4B4B46",
"8 	c #4B4A46",
"9 	c #565647",
"0 	c #FFFF55",
"a 	c #131313",
"b 	c #FF633D",
"c 	c #FFF07E",
"d 	c #7D7D59",
"e 	c #474746",
"f 	c #565646",
"g 	c #4B4945",
"h 	c #464646",
"i 	c #565649",
"j 	c #7D7D4A",
"k 	c #7D7D58",
"l 	c #4B4B48",
"m 	c #524340",
"n 	c #474646",
"o 	c #FFA054",
"p 	c #4B4846",
"q 	c #494544",
"r 	c #BE733C",
"s 	c #855537",
"t 	c #7D7D50",
"u 	c #FFFF60",
"v 	c #7D7D4E",
"w 	c #4B4845",
"x 	c #D78244",
"y 	c #7D7D53",
"z 	c #FFF45C",
"A 	c #FF8D41",
"B 	c #7D693B",
"C 	c #565443",
"D 	c #4B4944",
"E 	c #000000",
"F 	c #040404",
"G 	c #3B3B3B",
"H 	c #7D7351",
"I 	c #FF7A2E",
"J 	c #7D753D",
"K 	c #474745",
"L 	c #4B4744",
"M 	c #FFD98D",
"N 	c #7D6336",
"O 	c #4B4644",
"P 	c #454545",
"Q 	c #4B4847",
"R 	c #56534C",
"S 	c #FFC67A",
"T 	c #7D5039",
"U 	c #564B41",
"V 	c #4B4746",
"W 	c #7D5A4F",
"X 	c #FF8963",
"Y 	c #7D7037",
"Z 	c #4B4A45",
"` 	c #7D614A",
" .	c #FF7650",
"..	c #FF7E0C",
"+.	c #7D7D43",
"@.	c #4B4B45",
"#.	c #7D7B42",
"$.	c #7D7D48",
"%.	c #7D6240",
"&.	c #565244",
"*.	c #565645",
"=.	c #565643",
"-.	c #7D7D3E",
";.	c #FFA432",
">.	c #7D6E41",
",.	c #FFD214",
"'.	c #4F2C14",
"                                                                ",
". . . . . . . . . . . .       . . . . . . . . . . . . . .       ",
". . . . . + . . . . . . .   . . . . . . + . . . + . . . . .   . ",
"+ + . + + + + . + + + . .   . . + + . + + + . + + + + + + .   . ",
"+ + + + + @ + + + + @ @ .   . @ @ + + + + + + + + + + @ + +   + ",
"@ @ @ @ @ @ @ @ @ @ @ @ @   @ @ @ @ @ @ + + @ @ @ @ @ @ @ @   @ ",
"@ @ @ @ @ @ @ @ @ @ @ @       @ @ @ @ @ @ @ @ @ @ @ @ @ @       ",
"                                                                ",
"# # # # # # # # # # # # # # # # # # # # # # # # # # # # # # # # ",
"# # # # # # # # # # # # # # # # # # # # # # # # # # # # # # # # ",
"# # # # # # # # # # # # $ $ % & $ $ # * = # # # # # # # # # # # ",
"# # # # # # # # # # = - % ; ; > % , ' ) ) & $ # # # # # # # # # ",
"# # # # # # # # # = ) ! ~ { { ~ ] ' ^ ' ' & & = # # # # # # # # ",
"# # # # # # # # # / ( _ : < [ ~ ] ^ ^ ] ^ } ; $ = # # # # # # # ",
"# # # # # # # # | 1 2 3 4 5 6 7 7 8 7 9 ] 0 ! - = # # # # # # # ",
"# # # # # # # a b c d 4 e e f g h e h h i j ~ ; $ # # # # # # # ",
"# # # # # # a * b 1 k l e h e m h n h h h e > ; ) = # # # # # # ",
"# # # # # # a * b o 1 e e p q r s h h h h e t u & = = # # # # # ",
"# # # # # # a * & ^ v 7 w q r x x s h h h h y z A = = # # # # # ",
"# # # # # # # * % B C C D m E E E F G h h e H 1 I = = # # # # # ",
"# # # # # # = $ % J C K L m = x x x h h e e M o I = = # # # # # ",
"# # # # # # = = - N D K h O = x r s P h Q R S 1 * = # # # # # # ",
"# # # # # # # = - N D h h h w T U O e p V W X b # # # # # # # # ",
"# # # # # # # = $ - Y h h e e 7 g K Z f `  .b = # # # # # # # # ",
"# # # # # # # # # $ ..h e e e +.7 e @.#.$.b / = # # # # # # # # ",
"# # # # # # # # # # $ %.&.*.7 +.f =.-.J ; ) * = # # # # # # # # ",
"# # # # # # # # # # # ;.;., } #.>.> ,.; & ) = # # # # # # # # # ",
"# # # # # # # # # # # = I , , , ;.% - ..$ = # # # # # # # # # # ",
"# # # # # # # # # # # E a a / * * '.'.= E # # # # # # # # # # # ",
"# # # # # # # # # # # E '.'.E E E E '.'.E # # # # # # # # # # # ",
"# # # # # # # # # # # E '.'.E E # E E E E # # # # # # # # # # # ",
"# # # # # # # # # # # E E E E E # E E E E # # # # # # # # # # # "};
