/* XPM */
static char * CapyAR4_xpm[] = {
"32 32 121 2",
"  	c #2F2E2F",
". 	c #564064",
"+ 	c #3E2F5A",
"@ 	c #39314B",
"# 	c #D43003",
"$ 	c #FF6006",
"% 	c #302A3E",
"& 	c #FFA922",
"* 	c #FF9009",
"= 	c #871E51",
"- 	c #ED491C",
"; 	c #FF791F",
"> 	c #FFC00C",
", 	c #FFF00F",
"' 	c #FFD925",
") 	c #FFFF28",
"! 	c #FF9238",
"~ 	c #FFFF2B",
"{ 	c #FFC23B",
"] 	c #FFAB51",
"^ 	c #FFFF44",
"/ 	c #FFFF47",
"( 	c #94944C",
"_ 	c #94944B",
": 	c #94944A",
"< 	c #FFDB54",
"[ 	c #FFFF57",
"} 	c #FFFF41",
"| 	c #191919",
"1 	c #FFFF86",
"2 	c #94946B",
"3 	c #949465",
"4 	c #6F6F5C",
"5 	c #6F6F56",
"6 	c #6F6555",
"7 	c #947648",
"8 	c #946647",
"9 	c #6F5C57",
"0 	c #6F6257",
"a 	c #6F655A",
"b 	c #FFFF5A",
"c 	c #323232",
"d 	c #FFAD80",
"e 	c #FFFF89",
"f 	c #94946C",
"g 	c #94946D",
"h 	c #6F6752",
"i 	c #6F5C51",
"j 	c #6A5751",
"k 	c #8E5546",
"l 	c #625C5A",
"m 	c #625D5B",
"n 	c #6F6B5B",
"o 	c #FF7B4E",
"p 	c #FFDD83",
"q 	c #94946A",
"r 	c #6F6F61",
"s 	c #6F6858",
"t 	c #6F5F55",
"u 	c #602F43",
"v 	c #595959",
"w 	c #5B5B5B",
"x 	c #5A5A5A",
"y 	c #5E5C5B",
"z 	c #948749",
"A 	c #FFC46A",
"B 	c #949062",
"C 	c #62625C",
"D 	c #625E5A",
"E 	c #6D5954",
"F 	c #59494E",
"G 	c #5A5557",
"H 	c #5C5C5B",
"I 	c #625F59",
"J 	c #626159",
"K 	c #6F685D",
"L 	c #6F5F5A",
"M 	c #5B595A",
"N 	c #5E5D5B",
"O 	c #945D3E",
"P 	c #615A58",
"Q 	c #2A2A2A",
"R 	c #000000",
"S 	c #5C5B5B",
"T 	c #948859",
"U 	c #94945A",
"V 	c #030303",
"W 	c #4F2C14",
"X 	c #948061",
"Y 	c #948869",
"Z 	c #947E40",
"` 	c #854D3D",
" .	c #885B39",
"..	c #5C5C5C",
"+.	c #FF9467",
"@.	c #946E3F",
"#.	c #D78244",
"$.	c #484848",
"%.	c #946657",
"&.	c #6F6252",
"*.	c #935E3C",
"=.	c #575757",
"-.	c #5D5D5D",
";.	c #626058",
">.	c #C5773E",
",.	c #646464",
"'.	c #625E58",
").	c #5E5C5A",
"!.	c #5D5B5A",
"~.	c #454545",
"{.	c #565656",
"].	c #4B4B4B",
"^.	c #71584D",
"/.	c #625C58",
"(.	c #945E4E",
"_.	c #FF6235",
":.	c #6F6E58",
"<.	c #949051",
"[.	c #947F50",
"}.	c #FFF23E",
"|.	c #949452",
"                                                                ",
". . . . . . . . . . . .       . . . . . . . . . . . . . .       ",
". . . . . + . . . . . . .   . . . . . . + . . . + . . . . .   . ",
"+ + . + + + + . + + + . .   . . + + . + + + . + + + + + + .   . ",
"+ + + + + @ + + + + @ @ .   . @ @ + + + + + + + + + + @ + +   + ",
"@ @ @ @ @ @ @ @ @ @ @ @ @   @ @ @ @ @ @ + + @ @ @ @ @ @ @ @   @ ",
"@ @ @ @ @ @ @ @ @ @ @ @       @ @ @ @ @ @ @ @ @ @ @ @ @ @       ",
"                            # # $ #                             ",
"% % % % % % % % % % % # $ & & & & $ * = # - ; - % % % % % % % % ",
"% % % % % % % % % # $ > , ' ) ' ' * * ; ! ; ; ; - # % % % % % % ",
"% % % % % % % % # - & ) ) ~ ) ) ' { & ] ] ] ! & & $ % % % % % % ",
"% % % % % % % % - ; ^ / ( _ : ) ) { ! ] < ] [ } ) ; % % % % % % ",
"% % % % % % % | ] 1 2 3 4 _ 5 6 7 8 9 0 a < b } ) > % % % % % % ",
"% % % % % % % c d e f g 4 h i j % k 9 l m n b ^ ~ , * % % % % % ",
"% % % % % % | o p 1 q r s t u % % % v w x y z : : ) ' % % % % % ",
"% % % % % | - o A p B C D E % % % % F G v H I J : ' & - % % % % ",
"% % % % | - - - ] A K L E j % % % % % % % M y N 7 7 & ; # # % % ",
"% % % % | - - - ; ! O P P Q R R R % % % % F S y T U [ ; # # # % ",
"% % % % % | - ; ; ; O % u V W W R % % % % G w H X Y A ] - # # % ",
"% % % % % # ; & ' Z i ` V V W  .R R % % F F w ..+.p p ! - # # % ",
"% % % % R # $ * @.@.O j ` #.W  .#.R R R R $.w w %.A A ! - # # % ",
"% % % % # # $ * @.@.&.j ` #.#.#.#.#.#.#.#.*.=.-.-.+.] - - # % % ",
"% % % % # # $ > Z ;.;.P j #.#.#.#.#.>.#.#.>.x x x ,.| R % % % % ",
"% % % % R # # * > &.'.).!.*.#.#.#.>.*.*.#.~.=.{.].].c R % % % % ",
"% % % % R  .# $ * @.'.).).!.>.#.#.j j j ^.~.%.%.o o | R % % % % ",
"% % % % R R R # # $ @.).).N t - O /.i i &.8 (.%.o _.# R % % % % ",
"% % % % % % % % # $ $ &.I s :.<.[.@.&.@.h : 8 - - - # R % % % % ",
"% % % % % % % % % # * 7 s :.}.|.[.z Z > > ) & - - - # R % % % % ",
"% % % % % % % % % % # ; ! }.}.}.[.z Z > > > & ; - # #.R % % % % ",
"% % % % % % % % % % R $ ! }.}.{ { & * > > $ # $ # #.#.R % % % % ",
"% % % % % % % % % % R W | _.! ! ; - $ # # # # W W W R R % % % % ",
"% % % % % % % % % % R R R | | | | % % % R R R R R R R % % % % % "};
