/* XPM */
static char * CapyAD1_xpm[] = {
"32 32 108 2",
"  	c #2F2E2F",
". 	c #564064",
"+ 	c #3E2F5A",
"@ 	c #39314B",
"# 	c #302A3E",
"$ 	c #FF5408",
"% 	c #FFBB23",
"& 	c #FF911F",
"* 	c #000000",
"= 	c #E63D17",
"- 	c #D32A04",
"; 	c #FFA810",
"> 	c #FFE527",
", 	c #FFFF2B",
"' 	c #FFCE36",
") 	c #FFE149",
"! 	c #FF671B",
"~ 	c #FFFF2F",
"{ 	c #FFFF3E",
"] 	c #FFFF33",
"^ 	c #FFFF51",
"/ 	c #FFFF4D",
"( 	c #F9502A",
"_ 	c #FFFF73",
": 	c #FFFF7B",
"< 	c #7D7D56",
"[ 	c #7D7D4C",
"} 	c #7D7D41",
"| 	c #FFF83A",
"1 	c #262626",
"2 	c #FFB367",
"3 	c #FFFF77",
"4 	c #7D7D57",
"5 	c #56564D",
"6 	c #4B4B47",
"7 	c #565644",
"8 	c #4B4B46",
"9 	c #4B4A46",
"0 	c #565647",
"a 	c #FFFF55",
"b 	c #131313",
"c 	c #FF633D",
"d 	c #FFF07E",
"e 	c #7D7D59",
"f 	c #474746",
"g 	c #565646",
"h 	c #4B4945",
"i 	c #464646",
"j 	c #565649",
"k 	c #7D7D4A",
"l 	c #7D7D58",
"m 	c #4B4B48",
"n 	c #524340",
"o 	c #474646",
"p 	c #FFA054",
"q 	c #4B4846",
"r 	c #494544",
"s 	c #040404",
"t 	c #272727",
"u 	c #7D7D50",
"v 	c #FFFF60",
"w 	c #7D7D4E",
"x 	c #4B4845",
"y 	c #BE733C",
"z 	c #D78244",
"A 	c #855537",
"B 	c #7D7D53",
"C 	c #FFF45C",
"D 	c #FF8D41",
"E 	c #7D693B",
"F 	c #565443",
"G 	c #4B4944",
"H 	c #5F493F",
"I 	c #7D7351",
"J 	c #FF7A2E",
"K 	c #7D753D",
"L 	c #474745",
"M 	c #4B4744",
"N 	c #FFD98D",
"O 	c #7D6336",
"P 	c #4B4644",
"Q 	c #454545",
"R 	c #4B4847",
"S 	c #56534C",
"T 	c #FFC67A",
"U 	c #7D5039",
"V 	c #564B41",
"W 	c #4B4746",
"X 	c #7D5A4F",
"Y 	c #FF8963",
"Z 	c #7D7037",
"` 	c #4B4A45",
" .	c #7D614A",
"..	c #FF7650",
"+.	c #FF7E0C",
"@.	c #7D7D43",
"#.	c #4B4B45",
"$.	c #7D7B42",
"%.	c #7D7D48",
"&.	c #7D6240",
"*.	c #565244",
"=.	c #565645",
"-.	c #565643",
";.	c #7D7D3E",
">.	c #FFA432",
",.	c #7D6E41",
"'.	c #FFD214",
").	c #4F2C14",
"                                                                ",
". . . . . . . . . . . .       . . . . . . . . . . . . . .       ",
". . . . . + . . . . . . .   . . . . . . + . . . + . . . . .   . ",
"+ + . + + + + . + + + . .   . . + + . + + + . + + + + + + .   . ",
"+ + + + + @ + + + + @ @ .   . @ @ + + + + + + + + + + @ + +   + ",
"@ @ @ @ @ @ @ @ @ @ @ @ @   @ @ @ @ @ @ + + @ @ @ @ @ @ @ @   @ ",
"@ @ @ @ @ @ @ @ @ @ @ @       @ @ @ @ @ @ @ @ @ @ @ @ @ @       ",
"                                                                ",
"# # # # # # # # # # # # # # # # # # # # # # # # # # # # # # # # ",
"# # # # # # # # # # # # # # # # # # # # # # # # # # # # # # # # ",
"# # # # # # # # # # # # # # # # # # # # # # # # # # # # # # # # ",
"# # # # # # # # # # # # $ $ % & $ $ * = - # # # # # # # # # # # ",
"# # # # # # # # # # - ; % > > , % ' ) ! ! & $ # # # # # # # # # ",
"# # # # # # # # # - ! ~ { ] ] { ^ ) / ) ) & & - # # # # # # # # ",
"# # # # # # # # # ( _ : < [ } { ^ / / ^ / | > $ - # # # # # # # ",
"# # # # # # # # 1 2 3 4 5 6 7 8 8 9 8 0 ^ a ~ ; - # # # # # # # ",
"# # # # # # # b c d e 5 f f g h i f i i j k { > $ # # # # # # # ",
"# # # # # # b = c 2 l m f i f n i o i i i f , > ! - # # # # # # ",
"# # # # # # b = c p 2 f f q r s t i i i i f u v & - - # # # # # ",
"# # # # # # b = & / w 8 x r y z z A i i i i B C D - - # # # # # ",
"# # # # # # # = % E F F G n z z z y H i i f I 2 J - - # # # # # ",
"# # # # # # - $ % K F L M n - z z z i i f f N p J - - # # # # # ",
"# # # # # # - - ; O G L i P - z y A Q i R S T 2 = - # # # # # # ",
"# # # # # # # - ; O G i i i x U V P f q W X Y c # # # # # # # # ",
"# # # # # # # - $ ; Z i i f f 8 h L ` g  ...c - # # # # # # # # ",
"# # # # # # # # # $ +.i f f f @.8 f #.$.%.c ( - # # # # # # # # ",
"# # # # # # # # # # $ &.*.=.8 @.g -.;.K > ! = - # # # # # # # # ",
"# # # # # # # # # # # >.>.' | $.,., '.> & ! - # # # # # # # # # ",
"# # # # # # # # # # # - J ' ' ' >.% ; +.$ - # # # # # # # # # # ",
"# # # # # # # # # # # * b b ( = = * ).- * # # # # # # # # # # # ",
"# # # # # # # # # # # * ).).* * # * * * * # # # # # # # # # # # ",
"# # # # # # # # # # # * * * * * # * * * * # # # # # # # # # # # "};
