/* XPM */
static char * CapyAD4_xpm[] = {
"32 32 123 2",
"  	c #2F2E2F",
". 	c #564064",
"+ 	c #3E2F5A",
"@ 	c #39314B",
"# 	c #D43003",
"$ 	c #FF6006",
"% 	c #302A3E",
"& 	c #FFA922",
"* 	c #FF9009",
"= 	c #871E51",
"- 	c #ED491C",
"; 	c #FF791F",
"> 	c #FFC00C",
", 	c #FFF00F",
"' 	c #FFD925",
") 	c #FFFF28",
"! 	c #FF9238",
"~ 	c #FFFF2B",
"{ 	c #FFC23B",
"] 	c #FFAB51",
"^ 	c #FFFF44",
"/ 	c #FFFF47",
"( 	c #94944C",
"_ 	c #94944B",
": 	c #94944A",
"< 	c #FFDB54",
"[ 	c #FFFF57",
"} 	c #FFFF41",
"| 	c #191919",
"1 	c #FFFF86",
"2 	c #94946B",
"3 	c #949465",
"4 	c #6F6F5C",
"5 	c #6F6F56",
"6 	c #6F6555",
"7 	c #947648",
"8 	c #946647",
"9 	c #6F5C57",
"0 	c #6F6257",
"a 	c #6F655A",
"b 	c #FFFF5A",
"c 	c #323232",
"d 	c #FFAD80",
"e 	c #FFFF89",
"f 	c #94946C",
"g 	c #94946D",
"h 	c #6F6752",
"i 	c #6F5C51",
"j 	c #6A5751",
"k 	c #030303",
"l 	c #8E5546",
"m 	c #625C5A",
"n 	c #625D5B",
"o 	c #6F6B5B",
"p 	c #FF7B4E",
"q 	c #FFDD83",
"r 	c #94946A",
"s 	c #6F6F61",
"t 	c #6F6858",
"u 	c #6F5F55",
"v 	c #935E3C",
"w 	c #C5773E",
"x 	c #7C5334",
"y 	c #595959",
"z 	c #5B5B5B",
"A 	c #5A5A5A",
"B 	c #5E5C5B",
"C 	c #948749",
"D 	c #FFC46A",
"E 	c #949062",
"F 	c #62625C",
"G 	c #625E5A",
"H 	c #6D5954",
"I 	c #5A504B",
"J 	c #555555",
"K 	c #5C5C5B",
"L 	c #625F59",
"M 	c #626159",
"N 	c #6F685D",
"O 	c #6F5F5A",
"P 	c #D78244",
"Q 	c #885B39",
"R 	c #5B595A",
"S 	c #5E5D5B",
"T 	c #945D3E",
"U 	c #615A58",
"V 	c #2A2A2A",
"W 	c #59494E",
"X 	c #5C5B5B",
"Y 	c #948859",
"Z 	c #94945A",
"` 	c #602F43",
" .	c #000000",
"..	c #5A5557",
"+.	c #948061",
"@.	c #948869",
"#.	c #947E40",
"$.	c #854D3D",
"%.	c #484848",
"&.	c #5C5C5C",
"*.	c #FF9467",
"=.	c #946E3F",
"-.	c #946657",
";.	c #6F6252",
">.	c #575757",
",.	c #5D5D5D",
"'.	c #626058",
").	c #646464",
"!.	c #625E58",
"~.	c #5E5C5A",
"{.	c #5D5B5A",
"].	c #454545",
"^.	c #565656",
"/.	c #4B4B4B",
"(.	c #71584D",
"_.	c #625C58",
":.	c #945E4E",
"<.	c #FF6235",
"[.	c #6F6E58",
"}.	c #949051",
"|.	c #947F50",
"1.	c #FFF23E",
"2.	c #949452",
"                                                                ",
". . . . . . . . . . . .       . . . . . . . . . . . . . .       ",
". . . . . + . . . . . . .   . . . . . . + . . . + . . . . .   . ",
"+ + . + + + + . + + + . .   . . + + . + + + . + + + + + + .   . ",
"+ + + + + @ + + + + @ @ .   . @ @ + + + + + + + + + + @ + +   + ",
"@ @ @ @ @ @ @ @ @ @ @ @ @   @ @ @ @ @ @ + + @ @ @ @ @ @ @ @   @ ",
"@ @ @ @ @ @ @ @ @ @ @ @       @ @ @ @ @ @ @ @ @ @ @ @ @ @       ",
"                          # # $ #                               ",
"% % % % % % % % % % # $ & & & & $ * = # - ; - % % % % % % % % % ",
"% % % % % % % % # $ > , ' ) ' ' * * ; ! ; ; ; - # % % % % % % % ",
"% % % % % % % # - & ) ) ~ ) ) ' { & ] ] ] ! & & $ # % % % % % % ",
"% % % % % % % - ; ^ / ( _ : ) ) { ! ] < ] [ } ) ; # # % % % % % ",
"% % % % % % | ] 1 2 3 4 _ 5 6 7 8 9 0 a < b } ) > # # % % % % % ",
"% % % % % % c d e f g 4 h i j k l 9 m n o b ^ ~ , * # % % % % % ",
"% % % % % | p q 1 r s t u v w x x y z A B C : : ) ' # % % % % % ",
"% % % % | - p D q E F G H k x x x I J y K L M : ' & - % % % % % ",
"% % % | - - - ] D N O H j P Q Q Q Q w k R B S 7 7 & ; # # % % % ",
"% % % | - - - ; ! T U U V P Q Q Q Q P k W X B Y Z [ ; # # # % % ",
"% % % % | - ; ; ; T % ` k  . . . . . .k ..z K +.@.D ] - # # % % ",
"% % % % # ; & ' #.i $.% k P P P P P P %.W z &.*.q q ! - # # % % ",
"% % % % # $ * =.=.T j $. .P P P P P P  .%.z z -.D D ! - # # % % ",
"% % % # # $ * =.=.;.j $.P P P P P P P P V >.,.,.*.] - - # % % % ",
"% % % # # $ > #.'.'.U j P P P P P w P P k A A A ).| % % % % % % ",
"% % % % # # * > ;.!.~.{.v P P P w v v P ].>.^././.c % % % % % % ",
"% % % % % # $ * =.!.~.~.{.w P P j j j (.].-.-.p p | % % % % % % ",
"% % % % % % # # $ =.~.~.S u - T _.i i ;.8 :.-.p <.# % % % % % % ",
"% % % % % % % # $ $ ;.L t [.}.|.=.;.=.h : 8 - - - # % % % % % % ",
"% % % % % % % % # * 7 t [.1.2.|.C #.> > ) & - - - # % % % % % % ",
"% % % % % % % % % # ; ! 1.1.1.|.C #.> > > & ; - # % % % % % % % ",
"% % % % % % % % % % $ ! 1.1.{ { & * > > $ # $ # % % % % % % % % ",
"% % % % % % % % % % % | <.! ! ; - $ # # # # % % % % % % % % % % ",
"% % % % % % % % % % %  .| | | | %  . . . .% % % % % % % % % % % "};
