/* XPM */
static char * CapyAR1_xpm[] = {
"32 32 86 1",
" 	c #2F2E2F",
".	c #564064",
"+	c #3E2F5A",
"@	c #39314B",
"#	c #302A3E",
"$	c #D22804",
"%	c #FF780C",
"&	c #FFD824",
"*	c #FF881C",
"=	c #FFA010",
"-	c #E23814",
";	c #FF6018",
">	c #FF5008",
",	c #FFFF28",
"'	c #FFFF2C",
")	c #FFFF38",
"!	c #FFF844",
"~	c #FFD040",
"{	c #FFFF4C",
"]	c #FFFF5C",
"^	c #FFFF54",
"/	c #75753C",
"(	c #FFFF40",
"_	c #FFFF58",
":	c #FFFF48",
"<	c #FFE834",
"[	c #101010",
"}	c #FFC85C",
"|	c #FFFF70",
"1	c #4E4E44",
"2	c #4E4E43",
"3	c #4E4E40",
"4	c #4E4E41",
"5	c #43433F",
"6	c #000000",
"7	c #FF7854",
"8	c #FFFF74",
"9	c #757551",
"0	c #40403F",
"a	c #434340",
"b	c #3F3F3F",
"c	c #757547",
"d	c #885B39",
"e	c #FFA058",
"f	c #75753F",
"g	c #FF9048",
"h	c #FFF060",
"i	c #4E413C",
"j	c #4E4E42",
"k	c #D78244",
"l	c #FFA83C",
"m	c #423F3E",
"n	c #BC713B",
"o	c #75754A",
"p	c #FFFF64",
"q	c #FFB020",
"r	c #756A37",
"s	c #4E4C3E",
"t	c #4E403A",
"u	c #58443A",
"v	c #757552",
"w	c #FF8038",
"x	c #4A3D3A",
"y	c #4E4943",
"z	c #FFC078",
"A	c #43413E",
"B	c #403F3F",
"C	c #755F36",
"D	c #4E433B",
"E	c #4E4C44",
"F	c #756533",
"G	c #43403F",
"H	c #757340",
"I	c #756C44",
"J	c #FF5834",
"K	c #FFC030",
"L	c #43423F",
"M	c #4E4E3D",
"N	c #756F3C",
"O	c #FF982C",
"P	c #75753D",
"Q	c #4F2C14",
"R	c #FF7028",
"S	c #FFC814",
"T	c #202020",
"U	c #F24824",
"                                ",
"............   ..............   ",
".....+....... ......+...+..... .",
"++.++++.+++.. ..++.+++.++++++. .",
"+++++@++++@@. .@@++++++++++@++ +",
"@@@@@@@@@@@@@ @@@@@@++@@@@@@@@ @",
"@@@@@@@@@@@@   @@@@@@@@@@@@@@   ",
"                                ",
"################################",
"################################",
"################################",
"################################",
"################################",
"################################",
"################################",
"############$%&*=%-;>###########",
"###########>&,',)!!~**$#########",
"##########-{]^/(]_{:<&>$########",
"#########[}|1123453{{'&$########",
"#####666[78910a5b0b5c{,%########",
"####66d[-e8a0bb0bbbb0f,&$666####",
"####6dd[-gh00bbibbbbbj],$$k6####",
"####6dd[;l^005mnnbbbbop~$$k6####",
"####6dk[*qrsb0tkkubbbv}w$$k6####",
"####6dk$;&r0bbxknbbbbyzw$$k6####",
"####666$$=A0bbBCDBbbEE}-$dd6####",
"########$=Fbbb0b5005G7gkkkk6####",
"#########>=bbbbb505HIJ-$kkk6####",
"##########>KL00550MNK-$$kkk6####",
"##########6OOs)PfP,&*-$kkkk6####",
"##########6QRKK<K,S=>$QQQQ66####",
"##########66[TUR->$$6666666#####"};
