/* XPM */
static char * CapyAL4_xpm[] = {
"32 32 123 2",
"  	c #2F2E2F",
". 	c #564064",
"+ 	c #3E2F5A",
"@ 	c #39314B",
"# 	c #D43003",
"$ 	c #FF6006",
"% 	c #302A3E",
"& 	c #FFA922",
"* 	c #FF9009",
"= 	c #871E51",
"- 	c #ED491C",
"; 	c #FF791F",
"> 	c #FFC00C",
", 	c #FFF00F",
"' 	c #FFD925",
") 	c #FFFF28",
"! 	c #FF9238",
"~ 	c #FFFF2B",
"{ 	c #FFC23B",
"] 	c #FFAB51",
"^ 	c #FFFF44",
"/ 	c #FFFF47",
"( 	c #94944C",
"_ 	c #94944B",
": 	c #94944A",
"< 	c #FFDB54",
"[ 	c #FFFF57",
"} 	c #FFFF41",
"| 	c #191919",
"1 	c #FFFF86",
"2 	c #94946B",
"3 	c #949465",
"4 	c #6F6F5C",
"5 	c #6F6F56",
"6 	c #6F6555",
"7 	c #947648",
"8 	c #946647",
"9 	c #6F5C57",
"0 	c #6F6257",
"a 	c #6F655A",
"b 	c #FFFF5A",
"c 	c #323232",
"d 	c #FFAD80",
"e 	c #FFFF89",
"f 	c #94946C",
"g 	c #94946D",
"h 	c #6F6752",
"i 	c #6F5C51",
"j 	c #6A5751",
"k 	c #8E5546",
"l 	c #625C5A",
"m 	c #625D5B",
"n 	c #6F6B5B",
"o 	c #FF7B4E",
"p 	c #FFDD83",
"q 	c #94946A",
"r 	c #6F6F61",
"s 	c #6F6858",
"t 	c #6F5F55",
"u 	c #602F43",
"v 	c #030303",
"w 	c #595959",
"x 	c #5B5B5B",
"y 	c #5A5A5A",
"z 	c #5E5C5B",
"A 	c #948749",
"B 	c #FFC46A",
"C 	c #949062",
"D 	c #62625C",
"E 	c #625E5A",
"F 	c #6D5954",
"G 	c #5A504B",
"H 	c #575655",
"I 	c #5C5C5B",
"J 	c #625F59",
"K 	c #626159",
"L 	c #6F685D",
"M 	c #6F5F5A",
"N 	c #000000",
"O 	c #885B39",
"P 	c #C5773E",
"Q 	c #5E5B5A",
"R 	c #5E5D5B",
"S 	c #945D3E",
"T 	c #615A58",
"U 	c #D78244",
"V 	c #484848",
"W 	c #5C5B5B",
"X 	c #948859",
"Y 	c #94945A",
"Z 	c #625A56",
"` 	c #948061",
" .	c #948869",
"..	c #947E40",
"+.	c #854D3D",
"@.	c #71584D",
"#.	c #5C5C5C",
"$.	c #FF9467",
"%.	c #946E3F",
"&.	c #946657",
"*.	c #6F6252",
"=.	c #2A2A2A",
"-.	c #575757",
";.	c #5D5D5D",
">.	c #626058",
",.	c #646464",
"'.	c #625E58",
").	c #5E5C5A",
"!.	c #5D5B5A",
"~.	c #935E3C",
"{.	c #454545",
"].	c #565656",
"^.	c #4B4B4B",
"/.	c #7C5334",
"(.	c #625C58",
"_.	c #945E4E",
":.	c #FF6235",
"<.	c #6F6E58",
"[.	c #949051",
"}.	c #947F50",
"|.	c #4F2C14",
"1.	c #FFF23E",
"2.	c #949452",
"                                                                ",
". . . . . . . . . . . .       . . . . . . . . . . . . . .       ",
". . . . . + . . . . . . .   . . . . . . + . . . + . . . . .   . ",
"+ + . + + + + . + + + . .   . . + + . + + + . + + + + + + .   . ",
"+ + + + + @ + + + + @ @ .   . @ @ + + + + + + + + + + @ + +   + ",
"@ @ @ @ @ @ @ @ @ @ @ @ @   @ @ @ @ @ @ + + @ @ @ @ @ @ @ @   @ ",
"@ @ @ @ @ @ @ @ @ @ @ @       @ @ @ @ @ @ @ @ @ @ @ @ @ @       ",
"                          # # $ #                               ",
"% % % % % % % % % % # $ & & & & $ * = # - ; - % % % % % % % % % ",
"% % % % % % % % # $ > , ' ) ' ' * * ; ! ; ; ; - # % % % % % % % ",
"% % % % % % % # - & ) ) ~ ) ) ' { & ] ] ] ! & & $ # % % % % % % ",
"% % % % % % % - ; ^ / ( _ : ) ) { ! ] < ] [ } ) ; # # % % % % % ",
"% % % % % % | ] 1 2 3 4 _ 5 6 7 8 9 0 a < b } ) > # # % % % % % ",
"% % % % % % c d e f g 4 h i j % k 9 l m n b ^ ~ , * # % % % % % ",
"% % % % % | o p 1 q r s t u % % v w x y z A : : ) ' # % % % % % ",
"% % % % | - o B p C D E F % % % v G H w I J K : ' & - % % % % % ",
"% % % | - - - ] B L M F j % % N N O P P Q z R 7 7 & ; # # % % % ",
"% % % | - - - ; ! S T T u % % N U U U P V W z X Y [ ; # # # % % ",
"% % % % | - ; ; ; S % u % % N N U U U P Z x I `  .B ] - # # % % ",
"% % % % # ; & ' ..i +.v v N N U U U U @.@.x #.$.p p ! - # # % % ",
"% % % % # $ * %.%.S j +.U U U U U U U U @.x x &.B B ! - # # % % ",
"% % % # # $ * %.%.*.j +.U U U U U U U U =.-.;.;.$.] - - # % % % ",
"% % % # # $ > ..>.>.T j O U U U U P U U v y y y ,.| % % % % % % ",
"% % % % # # * > *.'.).!.~.U U U P ~.~.U {.-.].^.^.c % % % % % % ",
"% % % % % # $ * %.'.).).!./.O U j j j @.{.&.&.o o | % % % % % % ",
"% % % % % % # # $ %.).).R t - S (.i i *.8 _.&.o :.# % % % % % % ",
"% % % % % % N # $ $ *.J s <.[.}.%.*.%.h : 8 - - - # % % % % % % ",
"% % % % % % N |.# * 7 s <.1.2.}.A ..> > ) & - - - # % % % % % % ",
"% % % % % % N N |.# ; ! 1.1.1.}.A ..> > > & ; - # % % % % % % % ",
"% % % % % % % N N |.$ ! 1.1.{ { & * > > $ # $ # % % % % % % % % ",
"% % % % % % % % N N N | :.! ! ; - $ # # # # % % % % % % % % % % ",
"% % % % % % % % % % N N | | | | N N N N % % % % % % % % % % % % "};
