/* XPM */
static char * CapyAL1_xpm[] = {
"32 32 108 2",
"  	c #2F2E2F",
". 	c #564064",
"+ 	c #3E2F5A",
"@ 	c #39314B",
"# 	c #302A3E",
"$ 	c #FF5408",
"% 	c #FFBB23",
"& 	c #FF911F",
"* 	c #E63D17",
"= 	c #D32A04",
"- 	c #FFA810",
"; 	c #FFE527",
"> 	c #FFFF2B",
", 	c #FFCE36",
"' 	c #FFE149",
") 	c #FF671B",
"! 	c #FFFF2F",
"~ 	c #FFFF3E",
"{ 	c #FFFF33",
"] 	c #FFFF51",
"^ 	c #FFFF4D",
"/ 	c #F9502A",
"( 	c #FFFF73",
"_ 	c #FFFF7B",
": 	c #7D7D56",
"< 	c #7D7D4C",
"[ 	c #7D7D41",
"} 	c #FFF83A",
"| 	c #262626",
"1 	c #FFB367",
"2 	c #FFFF77",
"3 	c #7D7D57",
"4 	c #56564D",
"5 	c #4B4B47",
"6 	c #565644",
"7 	c #4B4B46",
"8 	c #4B4A46",
"9 	c #565647",
"0 	c #FFFF55",
"a 	c #000000",
"b 	c #131313",
"c 	c #FF633D",
"d 	c #FFF07E",
"e 	c #7D7D59",
"f 	c #474746",
"g 	c #565646",
"h 	c #4B4945",
"i 	c #464646",
"j 	c #565649",
"k 	c #7D7D4A",
"l 	c #885B39",
"m 	c #7D7D58",
"n 	c #4B4B48",
"o 	c #524340",
"p 	c #474646",
"q 	c #FFA054",
"r 	c #4B4846",
"s 	c #494544",
"t 	c #040404",
"u 	c #855537",
"v 	c #7D7D50",
"w 	c #FFFF60",
"x 	c #7D7D4E",
"y 	c #4B4845",
"z 	c #D78244",
"A 	c #7D7D53",
"B 	c #FFF45C",
"C 	c #FF8D41",
"D 	c #7D693B",
"E 	c #565443",
"F 	c #4B4944",
"G 	c #BE733C",
"H 	c #5F493F",
"I 	c #7D7351",
"J 	c #FF7A2E",
"K 	c #7D753D",
"L 	c #474745",
"M 	c #4B4744",
"N 	c #FFD98D",
"O 	c #7D6336",
"P 	c #4B4644",
"Q 	c #454545",
"R 	c #4B4847",
"S 	c #56534C",
"T 	c #FFC67A",
"U 	c #7D5039",
"V 	c #564B41",
"W 	c #4B4746",
"X 	c #7D5A4F",
"Y 	c #FF8963",
"Z 	c #7D7037",
"` 	c #4B4A45",
" .	c #7D614A",
"..	c #FF7650",
"+.	c #FF7E0C",
"@.	c #7D7D43",
"#.	c #4B4B45",
"$.	c #7D7B42",
"%.	c #7D7D48",
"&.	c #4F2C14",
"*.	c #7D6240",
"=.	c #565244",
"-.	c #565645",
";.	c #565643",
">.	c #7D7D3E",
",.	c #FFA432",
"'.	c #7D6E41",
").	c #FFD214",
"                                                                ",
". . . . . . . . . . . .       . . . . . . . . . . . . . .       ",
". . . . . + . . . . . . .   . . . . . . + . . . + . . . . .   . ",
"+ + . + + + + . + + + . .   . . + + . + + + . + + + + + + .   . ",
"+ + + + + @ + + + + @ @ .   . @ @ + + + + + + + + + + @ + +   + ",
"@ @ @ @ @ @ @ @ @ @ @ @ @   @ @ @ @ @ @ + + @ @ @ @ @ @ @ @   @ ",
"@ @ @ @ @ @ @ @ @ @ @ @       @ @ @ @ @ @ @ @ @ @ @ @ @ @       ",
"                                                                ",
"# # # # # # # # # # # # # # # # # # # # # # # # # # # # # # # # ",
"# # # # # # # # # # # # # # # # # # # # # # # # # # # # # # # # ",
"# # # # # # # # # # # # # # # # # # # # # # # # # # # # # # # # ",
"# # # # # # # # # # # # $ $ % & $ $ # * = # # # # # # # # # # # ",
"# # # # # # # # # # = - % ; ; > % , ' ) ) & $ # # # # # # # # # ",
"# # # # # # # # # = ) ! ~ { { ~ ] ' ^ ' ' & & = # # # # # # # # ",
"# # # # # # # # # / ( _ : < [ ~ ] ^ ^ ] ^ } ; $ = # # # # # # # ",
"# # # # # # # # | 1 2 3 4 5 6 7 7 8 7 9 ] 0 ! - = a a # # # # # ",
"# # # # # # # b c d e 4 f f g h i f i i j k ~ ; $ l a a # # # # ",
"# # # # # # b * c 1 m n f i f o i p i i i f > ; ) = l a # # # # ",
"# # # # # # b * c q 1 f f r s t u i i i i f v w & = = a # # # # ",
"# # # # # # b * & ^ x 7 y s t z z u i i i i A B C = = a # # # # ",
"# # # # # # # * % D E E F o z z z G H i i f I 1 J = = a # # # # ",
"# # # # # # = $ % K E L M o = z z z i i f f N q J = = a # # # # ",
"# # # # # # = = - O F L i P = z G u Q i R S T 1 * = # # # # # # ",
"# # # # # # # = - O F i i i y U V P f r W X Y c # # # # # # # # ",
"# # # # # # # = $ - Z i i f f 7 h L ` g  ...c = # # # # # # # # ",
"# # # # # # a a z $ +.i f f f @.7 f #.$.%.c / = # # # # # # # # ",
"# # # # # # a &.z z $ *.=.-.7 @.g ;.>.K ; ) * = # # # # # # # # ",
"# # # # # # a &.&.z a ,.,., } $.'.> ).; & ) = # # # # # # # # # ",
"# # # # # # a a &.&.a = J , , , ,.% - +.$ = # # # # # # # # # # ",
"# # # # # # # a a &.&.a b b / * * &.&.= a # # # # # # # # # # # ",
"# # # # # # # # a a a a a # # # a &.&.a # # # # # # # # # # # # ",
"# # # # # # # # # # a a a # # # a a a a # # # # # # # # # # # # "};
