/* XPM */
static char * CapyDU1_xpm[] = {
"32 32 9 1",
" 	c #2F2E2F",
".	c #564064",
"+	c #3E2F5A",
"@	c #39314B",
"#	c #302A3E",
"$	c #000000",
"%	c #885B39",
"&	c #D75444",
"*	c #4F2C14",
"                                ",
"............   ..............   ",
".....+....... ......+...+..... .",
"++.++++.+++.. ..++.+++.++++++. .",
"+++++@++++@@. .@@++++++++++@++ +",
"@@@@@@@@@@@@@ @@@@@@++@@@@@@@@ @",
"@@@@@@@@@@@@   @@@@@@@@@@@@@@   ",
"                                ",
"################################",
"################################",
"################################",
"################################",
"################################",
"################################",
"################################",
"############$$$##$$$############",
"############$%$$$$%$############",
"############$&&&&&&$############",
"############$&&&&&&$############",
"############$&&&&&&$############",
"############$&&&&&&$############",
"############$$$$$$$$############",
"###########$$&&&&&&$$###########",
"###########$&&&&&&&&$###########",
"###########$&&&&&&&&$###########",
"###########$%&&&&&&%$###########",
"###########$&&&&&&&&$###########",
"###########$&**$$**&$###########",
"###########$***$$***$###########",
"###########$**$$$$**$###########",
"###########$**$$#$$$$###########",
"###########$$$$$#$$$$###########"};
