/* XPM */
static char * CapyAR5_xpm[] = {
"32 32 87 1",
" 	c #2F2E2F",
".	c #564064",
"+	c #3E2F5A",
"@	c #D53403",
"#	c #39314B",
"$	c #FF6806",
"%	c #FF8624",
"&	c #FF9C09",
"*	c #FFBA27",
"=	c #F35221",
"-	c #FFD00C",
";	c #FFFF0F",
">	c #FFEE2A",
",	c #FFFF2D",
"'	c #FF703F",
")	c #FFA442",
"!	c #FF8E5D",
"~	c #FFC260",
"{	c #302A3E",
"]	c #FFFF30",
"^	c #A49249",
"/	c #A48A53",
"(	c #FFFF48",
"_	c #1E1E1E",
":	c #FFFF81",
"<	c #FFFF84",
"[	c #A4A46C",
"}	c #828269",
"|	c #A4A44A",
"1	c #A46B46",
"2	c #945845",
"3	c #9F6350",
"4	c #826D67",
"5	c #A4825D",
"6	c #A47967",
"7	c #FFF663",
"8	c #FFFF4B",
"9	c #3C3C3C",
"0	c #FFAC7B",
"a	c #FFFF9F",
"b	c #A4A481",
"c	c #A4A482",
"d	c #A4A45F",
"e	c #826C5E",
"f	c #7C655E",
"g	c #806962",
"h	c #666666",
"i	c #6A6A6A",
"j	c #A4A169",
"k	c #FFD845",
"l	c #A4A480",
"m	c #A4A475",
"n	c #673146",
"o	c #6C6C6C",
"p	c #A47652",
"q	c #FFE07E",
"r	c #82766F",
"s	c #634F56",
"t	c #82745F",
"u	c #A49E54",
"v	c #756D67",
"w	c #756E69",
"x	c #827863",
"y	c #736A67",
"z	c #686264",
"A	c #746C69",
"B	c #A48D68",
"C	c #000000",
"D	c #FFCA99",
"E	c #A47F47",
"F	c #4F2C14",
"G	c #696969",
"H	c #885B39",
"I	c #626262",
"J	c #5A5A5A",
"K	c #D78244",
"L	c #030303",
"M	c #787878",
"N	c #2B2B2B",
"O	c #C8793F",
"P	c #5B5B5B",
"Q	c #9C6440",
"R	c #706D6B",
"S	c #4F4F4F",
"T	c #827063",
"U	c #827567",
"V	c #A4955E",
"                                ",
"............   ..............   ",
".....+....... ......+...+..... .",
"++.++++.+++.. .@++.+++.++++++. .",
"+++++#++++@$@%%$$++++++++++#++ +",
"########@$&&***%&&@#@=%%@##### #",
"#######@$-;*>,*>&&=%=%%%%$###   ",
"      @=*>;,>>>>&%')!~)**$@@    ",
"{{{{{{=%>]]^//*%%=')!~(>>$@@{{{{",
"{{{{{_':<[}|112$=345678,>&@@{{{{",
"{{{{{90abcde2f{{{ghi4jk*--$@{{{{",
"{{{{_90:lm5_{{{{{nooip/^;;-@{{{{",
"{{{_=!q00r4{{{{{{{nsn2tuu**={{{{",
"{{_==!~~04gn{{{{{{{{{svwx/%={{{{",
"{{_===%%@ffn{{{{{{{{{syw/p%_=@{{",
"{{_====$@fn{{{{{{{{{{szA6B~%@@@{",
"{{_====@{{{{{{{{{{{{{ssi66qq%@@@",
"{{{{$&@@{{{{{CCCC{{{{ssi!Dq~%=@@",
"{{@$$&E12@{{{CFFC{{{{nGih0q)==@@",
"{{@$$EEE22CCCCFHCC{{{nIIh9J!==@{",
"{{@@$&Etf22KKKFHKCCCCLhiiM_C{{{{",
"{{@@@--efyNCKKKKKOOKKKPhJJJC{{{{",
"{{{@$&&1eyQQKKKKOOQOKO99999C{{{{",
"{{{{@@@E1yfQOKKKOQQQOOh!!'_C{{{{",
"{{{{@@@$@eRvvKKK@ee1OS3'''@C{{{{",
"{{{{CC@@$ttxT==1Ee1EEp3===@C{{{{",
"{{{{{{{@$&xTU()/EE&&-&====@C{{{{",
"{{{{{{{{@&%)(()V^E&--$%==@@C{{{{",
"{{{{{{{{{$))(k)k&&&-$$@@@KKC{{{{",
"{{{{{{{{{{%)k))%$$@@@@@KKKKC{{{{",
"{{{{{{{{{{C__%%=@C{{@@FFFFCC{{{{",
"{{{{{{{{{{CC___C{{{{CCCCCCC{{{{{"};
