/* XPM */
static char * CapyAU4_xpm[] = {
"32 32 122 2",
"  	c #2F2E2F",
". 	c #564064",
"+ 	c #3E2F5A",
"@ 	c #39314B",
"# 	c #D43003",
"$ 	c #FF6006",
"% 	c #302A3E",
"& 	c #FFA922",
"* 	c #FF9009",
"= 	c #871E51",
"- 	c #ED491C",
"; 	c #FF791F",
"> 	c #FFC00C",
", 	c #FFF00F",
"' 	c #FFD925",
") 	c #FFFF28",
"! 	c #FF9238",
"~ 	c #FFFF2B",
"{ 	c #FFC23B",
"] 	c #FFAB51",
"^ 	c #FFFF44",
"/ 	c #FFFF47",
"( 	c #94944C",
"_ 	c #94944B",
": 	c #94944A",
"< 	c #FFDB54",
"[ 	c #FFFF57",
"} 	c #FFFF41",
"| 	c #191919",
"1 	c #FFFF86",
"2 	c #94946B",
"3 	c #949465",
"4 	c #6F6F5C",
"5 	c #6F6F56",
"6 	c #6F6555",
"7 	c #947648",
"8 	c #946647",
"9 	c #6F5C57",
"0 	c #6F6257",
"a 	c #6F655A",
"b 	c #FFFF5A",
"c 	c #323232",
"d 	c #FFAD80",
"e 	c #FFFF89",
"f 	c #94946C",
"g 	c #94946D",
"h 	c #6F6752",
"i 	c #6F5C51",
"j 	c #6A5751",
"k 	c #030303",
"l 	c #8E5546",
"m 	c #625C5A",
"n 	c #625D5B",
"o 	c #6F6B5B",
"p 	c #FF7B4E",
"q 	c #FFDD83",
"r 	c #94946A",
"s 	c #6F6F61",
"t 	c #6F6858",
"u 	c #6F5F55",
"v 	c #935E3C",
"w 	c #C5773E",
"x 	c #595959",
"y 	c #5B5B5B",
"z 	c #5A5A5A",
"A 	c #5E5C5B",
"B 	c #948749",
"C 	c #FFC46A",
"D 	c #949062",
"E 	c #62625C",
"F 	c #625E5A",
"G 	c #6D5954",
"H 	c #71584D",
"I 	c #625A56",
"J 	c #5C5C5B",
"K 	c #625F59",
"L 	c #626159",
"M 	c #6F685D",
"N 	c #6F5F5A",
"O 	c #D78244",
"P 	c #5B595A",
"Q 	c #5E5D5B",
"R 	c #945D3E",
"S 	c #615A58",
"T 	c #2A2A2A",
"U 	c #59494E",
"V 	c #5C5B5B",
"W 	c #948859",
"X 	c #94945A",
"Y 	c #602F43",
"Z 	c #5A5557",
"` 	c #948061",
" .	c #948869",
"..	c #947E40",
"+.	c #854D3D",
"@.	c #000000",
"#.	c #484848",
"$.	c #5C5C5C",
"%.	c #FF9467",
"&.	c #946E3F",
"*.	c #946657",
"=.	c #6F6252",
"-.	c #575757",
";.	c #5D5D5D",
">.	c #626058",
",.	c #646464",
"'.	c #625E58",
").	c #5E5C5A",
"!.	c #5D5B5A",
"~.	c #614838",
"{.	c #885B39",
"].	c #454545",
"^.	c #565656",
"/.	c #4B4B4B",
"(.	c #625C58",
"_.	c #945E4E",
":.	c #FF6235",
"<.	c #6F6E58",
"[.	c #949051",
"}.	c #947F50",
"|.	c #FFF23E",
"1.	c #949452",
"                                                                ",
". . . . . . . . . . . .       . . . . . . . . . . . . . .       ",
". . . . . + . . . . . . .   . . . . . . + . . . + . . . . .   . ",
"+ + . + + + + . + + + . .   . . + + . + + + . + + + + + + .   . ",
"+ + + + + @ + + + + @ @ .   . @ @ + + + + + + + + + + @ + +   + ",
"@ @ @ @ @ @ @ @ @ @ @ @ @   @ @ @ @ @ @ + + @ @ @ @ @ @ @ @   @ ",
"@ @ @ @ @ @ @ @ @ @ @ @       @ @ @ @ @ @ @ @ @ @ @ @ @ @       ",
"                          # # $ #                               ",
"% % % % % % % % % % # $ & & & & $ * = # - ; - % % % % % % % % % ",
"% % % % % % % % # $ > , ' ) ' ' * * ; ! ; ; ; - # % % % % % % % ",
"% % % % % % % # - & ) ) ~ ) ) ' { & ] ] ] ! & & $ # % % % % % % ",
"% % % % % % % - ; ^ / ( _ : ) ) { ! ] < ] [ } ) ; # # % % % % % ",
"% % % % % % | ] 1 2 3 4 _ 5 6 7 8 9 0 a < b } ) > # # % % % % % ",
"% % % % % % c d e f g 4 h i j k l 9 m n o b ^ ~ , * # % % % % % ",
"% % % % % | p q 1 r s t u v w w w x y z A B : : ) ' # % % % % % ",
"% % % % | - p C q D E F G w w w w H I x J K L : ' & - % % % % % ",
"% % % | - - - ] C M N G j O O O O O w k P A Q 7 7 & ; # # % % % ",
"% % % | - - - ; ! R S S T O O O O O O k U V A W X [ ; # # # % % ",
"% % % % | - ; ; ; R % Y k O O O O O O k Z y J `  .C ] - # # % % ",
"% % % % # ; & ' ..i +.% k @.@.@.@.@.@.#.U y $.%.q q ! - # # % % ",
"% % % % # $ * &.&.R j +.@.O O O O O O @.#.y y *.C C ! - # # % % ",
"% % % # # $ * &.&.=.j +.O O O O O O O O T -.;.;.%.] - - # % % % ",
"% % % # # $ > ..>.>.S j O O O O O w O O k z z z ,.| % % % % % % ",
"% % % % # # * > =.'.).!.~.O O O w v v {.].-.^././.c % % % % % % ",
"% % % % % # $ * &.'.).).!.w O O j j j H ].*.*.p p | % % % % % % ",
"% % % % % % # # $ &.).).Q u - R (.i i =.8 _.*.p :.# % % % % % % ",
"% % % % % % % # $ $ =.K t <.[.}.&.=.&.h : 8 - - - # % % % % % % ",
"% % % % % % % % # * 7 t <.|.1.}.B ..> > ) & - - - # % % % % % % ",
"% % % % % % % % % # ; ! |.|.|.}.B ..> > > & ; - # % % % % % % % ",
"% % % % % % % % % % $ ! |.|.{ { & * > > $ # $ # % % % % % % % % ",
"% % % % % % % % % % % | :.! ! ; - $ # # # # % % % % % % % % % % ",
"% % % % % % % % % % % @.| | | | % @.@.@.@.% % % % % % % % % % % "};
