/* XPM */
static char * CapyAD3_xpm[] = {
"32 32 119 2",
"  	c #2F2E2F",
". 	c #564064",
"+ 	c #3E2F5A",
"@ 	c #39314B",
"# 	c #302A3E",
"$ 	c #D42E04",
"% 	c #FF8A0C",
"& 	c #FF5C08",
"* 	c #FFB810",
"= 	c #FFA123",
"- 	c #FFCF27",
"; 	c #EB451B",
"> 	c #FF731F",
", 	c #FFE614",
"' 	c #FFFD2B",
") 	c #FFCF51",
"! 	c #FF8A36",
"~ 	c #FFFF33",
"{ 	c #8C8C47",
"] 	c #FFE63E",
"^ 	c #FFA14D",
"/ 	c #FFFF87",
"( 	c #FFFF74",
"_ 	c #8C8C58",
": 	c #8C8C50",
"< 	c #8C8C49",
"[ 	c #8C8B46",
"} 	c #FFFF42",
"| 	c #8C754B",
"1 	c #FFFF59",
"2 	c #2E2E2E",
"3 	c #FFFD7F",
"4 	c #8C8C67",
"5 	c #66665A",
"6 	c #666655",
"7 	c #66664F",
"8 	c #665C4E",
"9 	c #8C844C",
"0 	c #8C654A",
"a 	c #665950",
"b 	c #5A5653",
"c 	c #666654",
"d 	c #8C8C55",
"e 	c #FFFF5D",
"f 	c #FFFF2F",
"g 	c #FF7349",
"h 	c #FFFF96",
"i 	c #8C8C63",
"j 	c #8C8C64",
"k 	c #666652",
"l 	c #66594C",
"m 	c #66544B",
"n 	c #5F4636",
"o 	c #595351",
"p 	c #565453",
"q 	c #5A5853",
"r 	c #8C8C4F",
"s 	c #171717",
"t 	c #FF5C32",
"u 	c #FFCF7B",
"v 	c #FFFF9A",
"w 	c #5A5A55",
"x 	c #5A5954",
"y 	c #5A5552",
"z 	c #C2753D",
"A 	c #7B5233",
"B 	c #535353",
"C 	c #545453",
"D 	c #5A5A53",
"E 	c #FFB864",
"F 	c #665F55",
"G 	c #665955",
"H 	c #64524D",
"I 	c #8F5B3B",
"J 	c #885B39",
"K 	c #6C5347",
"L 	c #515151",
"M 	c #565553",
"N 	c #8C6D44",
"O 	c #585251",
"P 	c #040404",
"Q 	c #000000",
"R 	c #4D4D4D",
"S 	c #5A5A54",
"T 	c #8C8B54",
"U 	c #8C563B",
"V 	c #282828",
"W 	c #D78244",
"X 	c #535152",
"Y 	c #545454",
"Z 	c #5A5754",
"` 	c #8C8B62",
" .	c #8C7C45",
"..	c #665F4C",
"+.	c #7E4739",
"@.	c #434343",
"#.	c #565454",
"$.	c #8C653C",
"%.	c #5A5551",
"&.	c #5A5655",
"*.	c #8C753D",
"=.	c #4F4F4F",
"-.	c #FFA177",
";.	c #5A5751",
">.	c #555353",
",.	c #525252",
"'.	c #5C5C5C",
").	c #454545",
"!.	c #624F4B",
"~.	c #8C5E50",
"{.	c #FF8A60",
"].	c #5A5451",
"^.	c #5A5953",
"/.	c #8C5648",
"(.	c #665F51",
"_.	c #666351",
":.	c #8C8C4E",
"<.	c #FFB83A",
"[.	c #8C843F",
"                                                                ",
". . . . . . . . . . . .       . . . . . . . . . . . . . .       ",
". . . . . + . . . . . . .   . . . . . . + . . . + . . . . .   . ",
"+ + . + + + + . + + + . .   . . + + . + + + . + + + + + + .   . ",
"+ + + + + @ + + + + @ @ .   . @ @ + + + + + + + + + + @ + +   + ",
"@ @ @ @ @ @ @ @ @ @ @ @ @   @ @ @ @ @ @ + + @ @ @ @ @ @ @ @   @ ",
"@ @ @ @ @ @ @ @ @ @ @ @       @ @ @ @ @ @ @ @ @ @ @ @ @ @       ",
"                                                                ",
"# # # # # # # # # # # # # # # # # # # # # # # # # # # # # # # # ",
"# # # # # # # # # # # # $ $ % & & # # # # # # # # # # # # # # # ",
"# # # # # # # # # # & * = - = = % % & ; > > ; # # # # # # # # # ",
"# # # # # # # # $ & * , ' ' ' ' - = ) ) ! > = > $ # # # # # # # ",
"# # # # # # # # ; = ~ ~ ~ { ' ' ] ] ) ) ^ ] - = & $ # # # # # # ",
"# # # # # # # # ! / ( _ : < [ } ] | ^ ) 1 1 ' ' & $ # # # # # # ",
"# # # # # # # 2 3 / 4 5 6 7 8 9 0 a b c d e f f * $ # # # # # # ",
"# # # # # # 2 g h i j 5 k l m n o p p q c r : ' ' & # # # # # # ",
"# # # # # s t ^ u v w x y z A A A B B p C D [ ' - > # # # # # # ",
"# # # # s ; ; ^ E u F G H I A J J A K L C M M N - = $ $ # # # # ",
"# # # # s ; ; ; ^ E y o O P Q Q Q Q P R C C S d T = $ $ $ # # # ",
"# # # # # ; ; = > N U O V W W W W W z R X Y Z ` E E > $ $ # # # ",
"# # # # # ; = -  ...m +.P W W W W W W @.B Y #.u u ^ > $ $ # # # ",
"# # # # # $ & $.$.$.%.+.+.W W W W W W I B Y &.E E ^ ; $ $ # # # ",
"# # # # $ $ & $.*...%.+.+.W W W W W W I =.Y Y -.E g ; $ # # # # ",
"# # # # $ $ & * ..;.p >.O W W W z z z W ,.,.,.'.).# # # # # # # ",
"# # # # # $ & % $...p p m I W W I !.I I ~.G {.{.2 # # # # # # # ",
"# # # # # # & & * $.;.C p p > & ].m ].8 ~.~.g g ; # # # # # # # ",
"# # # # # # # $ & % ..p M ^.9 | %.;.%.7 [ /.g t ; # # # # # # # ",
"# # # # # # # # $ & $.(._._.:.:.9 ..*.[ [ = ; ; $ # # # # # # # ",
"# # # # # # # # # & % <._.] } 9 9 [., * ' = ; ; $ # # # # # # # ",
"# # # # # # # # # # & ! ] ] ] <.- * * * & & $ $ # # # # # # # # ",
"# # # # # # # # # # # ; ! <.! ! = & & $ $ $ # # # # # # # # # # ",
"# # # # # # # # # # # Q s s ; ; # Q Q Q Q # # # # # # # # # # # "};
