/* XPM */
static char * CapyAD2_xpm[] = {
"32 32 116 2",
"  	c #2F2E2F",
". 	c #564064",
"+ 	c #3E2F5A",
"@ 	c #39314B",
"# 	c #302A3E",
"$ 	c #FF5808",
"% 	c #FF9921",
"& 	c #FF840C",
"* 	c #D32C04",
"= 	c #FFB010",
"- 	c #FFC525",
"; 	c #FFF129",
"> 	c #FF6D1D",
", 	c #E84119",
"' 	c #FFFF31",
") 	c #FFFF2D",
"! 	c #FFDA3A",
"~ 	c #FFEF4F",
"{ 	c #FFC34B",
"] 	c #FF8232",
"^ 	c #FFFF42",
"/ 	c #FFFF46",
"( 	c #84844A",
"_ 	c #848443",
": 	c #FFFF53",
"< 	c #FFFF3E",
"[ 	c #FF6B43",
"} 	c #FFED75",
"| 	c #FFFF85",
"1 	c #84845F",
"2 	c #5D5D4F",
"3 	c #848445",
"4 	c #5D5D49",
"5 	c #848449",
"6 	c #84844E",
"7 	c #5D574C",
"8 	c #514F4C",
"9 	c #84844F",
"0 	c #3F3F3F",
"a 	c #7E7E7E",
"b 	c #FFFF79",
"c 	c #84845C",
"d 	c #5D5D52",
"e 	c #51514C",
"f 	c #5D5C48",
"g 	c #51504B",
"h 	c #514D4B",
"i 	c #4D4D4C",
"j 	c #4D4C4C",
"k 	c #5D5D4D",
"l 	c #848451",
"m 	c #151515",
"n 	c #FFC171",
"o 	c #FFFF8E",
"p 	c #848462",
"q 	c #51514D",
"r 	c #5D4D45",
"s 	c #5B4335",
"t 	c #514C4B",
"u 	c #4C4C4C",
"v 	c #848041",
"w 	c #FFAC5C",
"x 	c #51504C",
"y 	c #514C4A",
"z 	c #7A5133",
"A 	c #FF9747",
"B 	c #514F4D",
"C 	c #594945",
"D 	c #000000",
"E 	c #040404",
"F 	c #464646",
"G 	c #848455",
"H 	c #847846",
"I 	c #514D4A",
"J 	c #504B4A",
"K 	c #8A5839",
"L 	c #D78244",
"M 	c #4A4A4A",
"N 	c #84845A",
"O 	c #847240",
"P 	c #5D5848",
"Q 	c #5D5146",
"R 	c #764235",
"S 	c #C1743D",
"T 	c #664E43",
"U 	c #4B4B4B",
"V 	c #847157",
"W 	c #846B39",
"X 	c #5D5C54",
"Y 	c #514F4A",
"Z 	c #4D4D4B",
"` 	c #484848",
" .	c #5D5551",
"..	c #4D4C4B",
"+.	c #514D4C",
"@.	c #5D514D",
"#.	c #846356",
"$.	c #84563D",
"%.	c #5D4F4B",
"&.	c #845C50",
"*.	c #FF8058",
"=.	c #5D5646",
"-.	c #51514B",
";.	c #848447",
">.	c #514E4A",
",.	c #84714C",
"'.	c #845649",
").	c #5D564A",
"!.	c #514F4B",
"~.	c #5D5A4A",
"{.	c #51504A",
"].	c #5D5A46",
"^.	c #5D5D4A",
"/.	c #848442",
"(.	c #FFDC14",
"_.	c #FFAE36",
"                                                                ",
". . . . . . . . . . . .       . . . . . . . . . . . . . .       ",
". . . . . + . . . . . . .   . . . . . . + . . . + . . . . .   . ",
"+ + . + + + + . + + + . .   . . + + . + + + . + + + + + + .   . ",
"+ + + + + @ + + + + @ @ .   . @ @ + + + + + + + + + + @ + +   + ",
"@ @ @ @ @ @ @ @ @ @ @ @ @   @ @ @ @ @ @ + + @ @ @ @ @ @ @ @   @ ",
"@ @ @ @ @ @ @ @ @ @ @ @       @ @ @ @ @ @ @ @ @ @ @ @ @ @       ",
"                                                                ",
"# # # # # # # # # # # # # # # # # # # # # # # # # # # # # # # # ",
"# # # # # # # # # # # # # # # # # # # # # # # # # # # # # # # # ",
"# # # # # # # # # # # # $ $ % & $ * # # # # # # # # # # # # # # ",
"# # # # # # # # # # $ = - - ; - - & > > > > , # # # # # # # # # ",
"# # # # # # # # # * - ; ; ' ; ) ! ! ~ { { % % $ * # # # # # # # ",
"# # # # # # # # * ] ^ / ( _ _ ^ : ~ ~ { : < ; > * # # # # # # # ",
"# # # # # # # # [ } | 1 2 3 4 5 6 7 8 9 : ^ ) - * * # # # # # # ",
"# # # # # # # 0 a b c d d e f g h i j e k l / ) & * # # # # # # ",
"# # # # # # m [ n o p q i i r s t j i u i k v ; - # # # # # # # ",
"# # # # # m , [ w n q e x y z z z u u u u i f ; ; , * # # # # # ",
"# # # # # m , , A w B 8 y C D D D E F u u u 6 G ~ , * * # # # # ",
"# # # # # m , % % ; H I J K L L L L K M u u N N w ] * * # # # # ",
"# # # # # # , % - O P Q R S L L L L T U u u V n n ] * * # # # # ",
"# # # # # * * % O W I I C * L L L L S u u i X w w ] * * # # # # ",
"# # # # # * * & W Y Y Z C * L L L S L ` u u  .n [ , * # # # # # ",
"# # # # # # * = = Y Z Z ..C L L K K K U +.@.#.0 m # # # # # # # ",
"# # # # # # * $ & W Y u u ..$.$.Q r y 7 %.&.*.[ # # # # # # # # ",
"# # # # # # # * $ & =.u i i -.;.>.Y Y f ,.'.[ [ * # # # # # # # ",
"# # # # # # # # * $ = ).!.-.-.5 ~.{.].v v % , , * # # # # # # # ",
"# # # # # # # # # # & ).^.~.;.5 H /.(.; ; % , * * # # # # # # # ",
"# # # # # # # # # # * ] _.! ! H H ) (.= & > * * # # # # # # # # ",
"# # # # # # # # # # # , ] ! _.] % & & $ * * # # # # # # # # # # ",
"# # # # # # # # # # # D m m , , , D D D D # # # # # # # # # # # ",
"# # # # # # # # # # # D D D D D # D D D D # # # # # # # # # # # "};
