/* XPM */
static char * CapyAL5_xpm[] = {
"32 32 89 1",
" 	c #2F2E2F",
".	c #564064",
"+	c #3E2F5A",
"@	c #D53403",
"#	c #39314B",
"$	c #FF6806",
"%	c #FF8624",
"&	c #FF9C09",
"*	c #FFBA27",
"=	c #F35221",
"-	c #FFD00C",
";	c #FFFF0F",
">	c #FFEE2A",
",	c #FFFF2D",
"'	c #FF703F",
")	c #FFA442",
"!	c #FF8E5D",
"~	c #FFC260",
"{	c #302A3E",
"]	c #FFFF30",
"^	c #A49249",
"/	c #A48A53",
"(	c #FFFF48",
"_	c #1E1E1E",
":	c #FFFF81",
"<	c #FFFF84",
"[	c #A4A46C",
"}	c #828269",
"|	c #A4A44A",
"1	c #A46B46",
"2	c #945845",
"3	c #9F6350",
"4	c #826D67",
"5	c #A4825D",
"6	c #A47967",
"7	c #FFF663",
"8	c #FFFF4B",
"9	c #3C3C3C",
"0	c #FFAC7B",
"a	c #FFFF9F",
"b	c #A4A481",
"c	c #A4A482",
"d	c #A4A45F",
"e	c #826C5E",
"f	c #7C655E",
"g	c #806962",
"h	c #666666",
"i	c #6A6A6A",
"j	c #A4A169",
"k	c #FFD845",
"l	c #A4A480",
"m	c #A4A475",
"n	c #673146",
"o	c #6C6C6C",
"p	c #A47652",
"q	c #FFE07E",
"r	c #82766F",
"s	c #634F56",
"t	c #82745F",
"u	c #A49E54",
"v	c #000000",
"w	c #030303",
"x	c #756D67",
"y	c #756E69",
"z	c #827863",
"A	c #4F2C14",
"B	c #736A67",
"C	c #885B39",
"D	c #4E4E4E",
"E	c #616161",
"F	c #746C69",
"G	c #A48D68",
"H	c #D78244",
"I	c #C8793F",
"J	c #7F6254",
"K	c #FFCA99",
"L	c #A47F47",
"M	c #9C6440",
"N	c #696969",
"O	c #626262",
"P	c #5A5A5A",
"Q	c #787878",
"R	c #5B5B5B",
"S	c #674C3B",
"T	c #706D6B",
"U	c #4F4F4F",
"V	c #827063",
"W	c #827567",
"X	c #A4955E",
"                                ",
"............   ..............   ",
".....+....... ......+...+..... .",
"++.++++.+++.. .@++.+++.++++++. .",
"+++++#++++@$@%%$$++++++++++#++ +",
"########@$&&***%&&@#@=%%@##### #",
"#######@$-;*>,*>&&=%=%%%%$###   ",
"      @=*>;,>>>>&%')!~)**$@@    ",
"{{{{{{=%>]]^//*%%=')!~(>>$@@{{{{",
"{{{{{_':<[}|112$=345678,>&@@{{{{",
"{{{{{90abcde2f{{{ghi4jk*--$@{{{{",
"{{{{_90:lm5_{{{{{nooip/^;;-@{{{{",
"{{{_=!q00r4{{{{{{{nsn2tuu**={{{{",
"{{_==!~~04gn{{{{vvww{sxyz/%={{{{",
"{{_===%%@ffn{{{{vAAv{sBy/p%_=@{{",
"{{_====$@fn{{{{{vCAvwDEF6G~%@@@{",
"{{_====@{{{{{{{vvCHHIJJi66qq%@@{",
"{{{{$&@@{{{{{{{vHHHHwDJi!Kq~%=@{",
"{{@$$&L12@{{{{vvHHHHHMNih0q)==@{",
"{{@$$LLL22vvvvvHHHHHHMOOh9P!==@{",
"{{@@$&Ltf22HHHHHHHHHHIhiiQ_v{{{{",
"{{@@@--efBMHHHHHHIIHvvRhPPPv{{{{",
"{{{@$&&1eBMSCHHHIIMIv{99999{{{{{",
"{{{{@@@L1BfMIHHHIMMMw{h!!'_{{{{{",
"{{{{@@@$@eTxxCCH@ee1wU3'''@{{{{{",
"{{{{{{@@$ttzV==1Le1LLp3===@{{{{{",
"{{{{{{v@$&zVW()/LL&&-&====@{{{{{",
"{{{{{{vA@&%)(()X^L&--$%==@@{{{{{",
"{{{{{{vvA$))(k)k&&&-$$@@@{{{{{{{",
"{{{{{{{vvA%)k))%$$@@@@@{{{{{{{{{",
"{{{{{{{{vvv__%%=@AAv@@{{{{{{{{{{",
"{{{{{{{{{{vv___{vvvv{{{{{{{{{{{{"};
