/* XPM */
static char * CapyAL3_xpm[] = {
"32 32 116 2",
"  	c #2F2E2F",
". 	c #564064",
"+ 	c #3E2F5A",
"@ 	c #39314B",
"# 	c #302A3E",
"$ 	c #D42E04",
"% 	c #FF8A0C",
"& 	c #FF5C08",
"* 	c #FFB810",
"= 	c #FFA123",
"- 	c #FFCF27",
"; 	c #EB451B",
"> 	c #FF731F",
", 	c #FFE614",
"' 	c #FFFD2B",
") 	c #FFCF51",
"! 	c #FF8A36",
"~ 	c #FFFF33",
"{ 	c #8C8C47",
"] 	c #FFE63E",
"^ 	c #FFA14D",
"/ 	c #FFFF87",
"( 	c #FFFF74",
"_ 	c #8C8C58",
": 	c #8C8C50",
"< 	c #8C8C49",
"[ 	c #8C8B46",
"} 	c #FFFF42",
"| 	c #8C754B",
"1 	c #FFFF59",
"2 	c #2E2E2E",
"3 	c #FFFD7F",
"4 	c #8C8C67",
"5 	c #66665A",
"6 	c #666655",
"7 	c #66664F",
"8 	c #665C4E",
"9 	c #8C844C",
"0 	c #8C654A",
"a 	c #665950",
"b 	c #5A5653",
"c 	c #666654",
"d 	c #8C8C55",
"e 	c #FFFF5D",
"f 	c #FFFF2F",
"g 	c #FF7349",
"h 	c #FFFF96",
"i 	c #8C8C63",
"j 	c #8C8C64",
"k 	c #666652",
"l 	c #66594C",
"m 	c #66544B",
"n 	c #5E2D41",
"o 	c #595351",
"p 	c #565453",
"q 	c #5A5853",
"r 	c #8C8C4F",
"s 	c #171717",
"t 	c #FF5C32",
"u 	c #FFCF7B",
"v 	c #FFFF9A",
"w 	c #5A5A55",
"x 	c #5A5954",
"y 	c #5A5552",
"z 	c #040404",
"A 	c #535353",
"B 	c #545453",
"C 	c #5A5A53",
"D 	c #000000",
"E 	c #FFB864",
"F 	c #665F55",
"G 	c #665955",
"H 	c #64524D",
"I 	c #7B5233",
"J 	c #6C5347",
"K 	c #565352",
"L 	c #565553",
"M 	c #8C6D44",
"N 	c #585251",
"O 	c #D78244",
"P 	c #C2753D",
"Q 	c #5C524F",
"R 	c #5A5A54",
"S 	c #8C8B54",
"T 	c #8C563B",
"U 	c #545454",
"V 	c #5A5754",
"W 	c #8C8B62",
"X 	c #8C7C45",
"Y 	c #665F4C",
"Z 	c #7E4739",
"` 	c #565454",
" .	c #8C653C",
"..	c #5A5551",
"+.	c #8F5B3B",
"@.	c #5A5655",
"#.	c #8C753D",
"$.	c #4F4F4F",
"%.	c #FFA177",
"&.	c #5A5751",
"*.	c #555353",
"=.	c #525252",
"-.	c #5C5C5C",
";.	c #454545",
">.	c #624F4B",
",.	c #8C5E50",
"'.	c #FF8A60",
").	c #5A5451",
"!.	c #5A5953",
"~.	c #8C5648",
"{.	c #4F2C14",
"].	c #665F51",
"^.	c #666351",
"/.	c #8C8C4E",
"(.	c #FFB83A",
"_.	c #8C843F",
"                                                                ",
". . . . . . . . . . . .       . . . . . . . . . . . . . .       ",
". . . . . + . . . . . . .   . . . . . . + . . . + . . . . .   . ",
"+ + . + + + + . + + + . .   . . + + . + + + . + + + + + + .   . ",
"+ + + + + @ + + + + @ @ .   . @ @ + + + + + + + + + + @ + +   + ",
"@ @ @ @ @ @ @ @ @ @ @ @ @   @ @ @ @ @ @ + + @ @ @ @ @ @ @ @   @ ",
"@ @ @ @ @ @ @ @ @ @ @ @       @ @ @ @ @ @ @ @ @ @ @ @ @ @       ",
"                                                                ",
"# # # # # # # # # # # # $ $ % & & # # # # # # # # # # # # # # # ",
"# # # # # # # # # # & * = - = = % % & ; > > ; # # # # # # # # # ",
"# # # # # # # # $ & * , ' ' ' ' - = ) ) ! > = > $ # # # # # # # ",
"# # # # # # # # ; = ~ ~ ~ { ' ' ] ] ) ) ^ ] - = & $ # # # # # # ",
"# # # # # # # # ! / ( _ : < [ } ] | ^ ) 1 1 ' ' & $ # # # # # # ",
"# # # # # # # 2 3 / 4 5 6 7 8 9 0 a b c d e f f * $ # # # # # # ",
"# # # # # # 2 g h i j 5 k l m n o p p q c r : ' ' & # # # # # # ",
"# # # # # s t ^ u v w x y # # # z A A p B C [ ' - > D # # # # # ",
"# # # # s ; ; ^ E u F G H n # D D I J K B L L M - = $ $ # # # # ",
"# # # # s ; ; ; ^ E y o N # # D O O P Q B B R d S = $ $ $ # # # ",
"# # # # # ; ; = > M T N n # D D O O P Q K U V W E E > $ $ # # # ",
"# # # # # ; = - X Y m Z z D D O O O O J A U ` u u ^ > $ $ # # # ",
"# # # # # $ &  . . ...Z Z O O O O O O +.A U @.E E ^ ; $ $ # # # ",
"# # # # $ $ &  .#.Y ..Z Z O O O O O O +.$.U U %.E g ; $ # # # # ",
"# # # # $ $ & * Y &.p *.N O O O P P P O =.=.=.-.;.# # # # # # # ",
"# # # # # $ & %  .Y p p m +.O O +.>.+.+.,.G '.'.2 # # # # # # # ",
"# # # # # # & & *  .&.B p p > & ).m ).8 ,.,.g g ; # # # # # # # ",
"# # # # # # D $ & % Y p L !.9 | ..&...7 [ ~.g t ; # # # # # # # ",
"# # # # # # D {.$ &  .].^.^././.9 Y #.[ [ = ; ; $ # # # # # # # ",
"# # # # # # D {.{.& % (.^.] } 9 9 _., * ' = ; ; $ # # # # # # # ",
"# # # # # # D D {.{.& ! ] ] ] (.- * * * & & $ $ # # # # # # # # ",
"# # # # # # # D D {.{.; ! (.! ! = & & $ $ $ # # # # # # # # # # ",
"# # # # # # # # D D D D s s ; ; D {.{.D # # # # # # # # # # # # ",
"# # # # # # # # # # D D D # # # D D D D # # # # # # # # # # # # "};
