/* XPM */
static char * CapyAR2_xpm[] = {
"32 32 108 2",
"  	c #2F2E2F",
". 	c #564064",
"+ 	c #3E2F5A",
"@ 	c #39314B",
"# 	c #302A3E",
"$ 	c #FF5408",
"% 	c #FFBB23",
"& 	c #FF911F",
"* 	c #E63D17",
"= 	c #D32A04",
"- 	c #FFA810",
"; 	c #FFE527",
"> 	c #FFFF2B",
", 	c #FFCE36",
"' 	c #FFE149",
") 	c #FF671B",
"! 	c #FFFF2F",
"~ 	c #FFFF3E",
"{ 	c #FFFF33",
"] 	c #FFFF51",
"^ 	c #FFFF4D",
"/ 	c #F9502A",
"( 	c #FFFF73",
"_ 	c #FFFF7B",
": 	c #7D7D56",
"< 	c #7D7D4C",
"[ 	c #7D7D41",
"} 	c #FFF83A",
"| 	c #262626",
"1 	c #FFB367",
"2 	c #FFFF77",
"3 	c #7D7D57",
"4 	c #56564D",
"5 	c #4B4B47",
"6 	c #565644",
"7 	c #4B4B46",
"8 	c #4B4A46",
"9 	c #565647",
"0 	c #FFFF55",
"a 	c #131313",
"b 	c #FF633D",
"c 	c #FFF07E",
"d 	c #7D7D59",
"e 	c #474746",
"f 	c #565646",
"g 	c #4B4945",
"h 	c #464646",
"i 	c #565649",
"j 	c #7D7D4A",
"k 	c #000000",
"l 	c #7D7D58",
"m 	c #4B4B48",
"n 	c #524340",
"o 	c #474646",
"p 	c #FFA054",
"q 	c #4B4846",
"r 	c #494544",
"s 	c #785032",
"t 	c #855537",
"u 	c #7D7D50",
"v 	c #FFFF60",
"w 	c #885B39",
"x 	c #7D7D4E",
"y 	c #4B4845",
"z 	c #BE733C",
"A 	c #D78244",
"B 	c #7D7D53",
"C 	c #FFF45C",
"D 	c #FF8D41",
"E 	c #7D693B",
"F 	c #565443",
"G 	c #4B4944",
"H 	c #5F493F",
"I 	c #7D7351",
"J 	c #FF7A2E",
"K 	c #7D753D",
"L 	c #474745",
"M 	c #4B4744",
"N 	c #FFD98D",
"O 	c #7D6336",
"P 	c #4B4644",
"Q 	c #454545",
"R 	c #4B4847",
"S 	c #56534C",
"T 	c #FFC67A",
"U 	c #7D5039",
"V 	c #564B41",
"W 	c #4B4746",
"X 	c #7D5A4F",
"Y 	c #FF8963",
"Z 	c #7D7037",
"` 	c #4B4A45",
" .	c #7D614A",
"..	c #FF7650",
"+.	c #FF7E0C",
"@.	c #7D7D43",
"#.	c #4B4B45",
"$.	c #7D7B42",
"%.	c #7D7D48",
"&.	c #7D6240",
"*.	c #565244",
"=.	c #565645",
"-.	c #565643",
";.	c #7D7D3E",
">.	c #FFA432",
",.	c #7D6E41",
"'.	c #FFD214",
").	c #4F2C14",
"                                                                ",
". . . . . . . . . . . .       . . . . . . . . . . . . . .       ",
". . . . . + . . . . . . .   . . . . . . + . . . + . . . . .   . ",
"+ + . + + + + . + + + . .   . . + + . + + + . + + + + + + .   . ",
"+ + + + + @ + + + + @ @ .   . @ @ + + + + + + + + + + @ + +   + ",
"@ @ @ @ @ @ @ @ @ @ @ @ @   @ @ @ @ @ @ + + @ @ @ @ @ @ @ @   @ ",
"@ @ @ @ @ @ @ @ @ @ @ @       @ @ @ @ @ @ @ @ @ @ @ @ @ @       ",
"                                                                ",
"# # # # # # # # # # # # # # # # # # # # # # # # # # # # # # # # ",
"# # # # # # # # # # # # # # # # # # # # # # # # # # # # # # # # ",
"# # # # # # # # # # # # # # # # # # # # # # # # # # # # # # # # ",
"# # # # # # # # # # # # # # # # # # # # # # # # # # # # # # # # ",
"# # # # # # # # # # # # # # # # # # # # # # # # # # # # # # # # ",
"# # # # # # # # # # # # $ $ % & $ $ # * = # # # # # # # # # # # ",
"# # # # # # # # # # = - % ; ; > % , ' ) ) & $ # # # # # # # # # ",
"# # # # # # # # # = ) ! ~ { { ~ ] ' ^ ' ' & & = # # # # # # # # ",
"# # # # # # # # # / ( _ : < [ ~ ] ^ ^ ] ^ } ; $ = # # # # # # # ",
"# # # # # # # # | 1 2 3 4 5 6 7 7 8 7 9 ] 0 ! - = # # # # # # # ",
"# # # # # # # a b c d 4 e e f g h e h h i j ~ ; $ # # # # # # # ",
"# # # # # k a * b 1 l m e h e n h o h h h e > ; ) = # # # # # # ",
"# # # # k k a * b p 1 e e q r s t h h h h e u v & = = k # # # # ",
"# # # # k w a * & ^ x 7 y r z A A t h h h h B C D = = k # # # # ",
"# # # # k w w * % E F F G n A A A z H h h e I 1 J = = k # # # # ",
"# # # # k w = $ % K F L M n = A A A h h e e N p J = = k # # # # ",
"# # # # k w = = - O G L h P = A z t Q h R S T 1 * = A k # # # # ",
"# # # # k k k = - O G h h h y U V P e q W X Y b A w w k # # # # ",
"# # # # # # # = $ - Z h h e e 7 g L ` f  ...b = A A A k # # # # ",
"# # # # # # # # # $ +.h e e e @.7 e #.$.%.b / = A A A k # # # # ",
"# # # # # # # # # # $ &.*.=.7 @.f -.;.K ; ) * = A A A k # # # # ",
"# # # # # # # # # # k >.>., } $.,.> '.; & ) = A A A A k # # # # ",
"# # # # # # # # # # k = J , , , >.% - +.$ = ).).).).k k # # # # ",
"# # # # # # # # # # k k a a / * * # # = k k k k k k k # # # # # "};
