/* XPM */
static char * CapyWD3_xpm[] = {
"32 32 9 1",
" 	c #2F2E2F",
".	c #564064",
"+	c #3E2F5A",
"@	c #39314B",
"#	c #302A3E",
"$	c #000000",
"%	c #4F2C14",
"&	c #D78244",
"*	c #885B39",
"                                ",
"............   ..............   ",
".....+....... ......+...+..... .",
"++.++++.+++.. ..++.+++.++++++. .",
"+++++@++++@@. .@@++++++++++@++ +",
"@@@@@@@@@@@@@ @@@@@@++@@@@@@@@ @",
"@@@@@@@@@@@@   @@@@@@@@@@@@@@   ",
"                                ",
"################################",
"################################",
"################################",
"################################",
"############$$$##$$$############",
"############$%$##$%$############",
"############$%$$$$%$############",
"############$&&**&&$############",
"############$$****$$############",
"############$&****&$############",
"############$&****&$############",
"############$$$$$$$$############",
"###########$$&&&&&&$$###########",
"###########$&&&&&&&&$###########",
"###########$&&&&&&&&$###########",
"###########$&&&&&&&&$###########",
"###########$&&&&&&&&$###########",
"###########$%%&&&&&%$###########",
"###########$%%%&&&%%$###########",
"###########$%%%$$$%%$###########",
"###########$%%%$$$%%$###########",
"###########$%%$$$$%%$###########",
"###########$$$$$#$$%$###########",
"#############$$$##$$$###########"};
