/* XPM */
static char *result[] = {
/* columns rows colors chars-per-pixel */
"32 32 5 1 ",
"  c #2F2E2F",
". c #39314B",
"X c #3E2F5A",
"o c #564064",
"O c #85578E",
/* pixels */
"                                ",
"oooooooooooo   oooooooooooooo   ",
"oooooXooooooo ooooooXoooXooooo o",
"XXoXXXXoXXXoo ooXXoXXXoXXXXXXo o",
"XXXXX.XXXX..o o..XXXXXXXXXX.XX X",
"............. ......XX........ .",
"............   ..............   ",
"                                ",
"ooo   ooooooooooooooo   oooooooo",
"oooo ooooooooooXXooooo ooooooXXo",
"oXoo ooXXoXXXoXXXXoXoo ooXoXXXXX",
"XX.o o.XXXX.XXXXXXXX.o o.XXXX..X",
"X... ...XX...XXXXXX... ...XX..XX",
".... ...........XX.... .........",
"...   ...............   ........",
"                                ",
"OOOOOOOOOO   OOOOOOOOOOOO   OOOO",
"OOOOOOOoOOO OOOOOOoOOOOOOO OOOoO",
"oOoooOoooOO OOooOooooOooOO OOooo",
"oooooXooooO OoooooXooXoooO OooXo",
"ooXXooXoooX XooooXXoooXooX XoooX",
"oXXoooXXoXX XXoXXXooXoooXX XXooo",
"XXXXoXXXXXX XXXXXXXXXXoXXX XXXoX",
"XXXXXXXXXX   XXXXXXXXXXXX   XXXX",
"                                ",
"OOOOO   OOOOOOOOOOOO   OOOOOOOOO",
"OOOOOO OOOOOOoOOOoOOO OOOOOOOOoO",
"oOooOO OOooOoooOoooOO OOooOooooo",
"XoooXO OXooooooXoooXO OXooooooXo",
"oooXXX XXXoXXoooooXXX XXXooooXXo",
"XoXXXX XXXXXXXXXoXXXX XXXXoXXXXX",
"                                "
};
