/* XPM */
static char *result[] = {
/* columns rows colors chars-per-pixel */
"32 32 5 1 ",
"  c #2F2E2F",
". c #39314B",
"X c #3E2F5A",
"o c #564064",
"O c #85578E",
/* pixels */
"                                ",
" oOOOOOOOOOO   oooooooooooooo   ",
" OOOOoOOOOOOO ooooooXoooXooooo o",
" OOooooOoooOO ooXXoXXXoXXXXXXo o",
" OooooooooXXO o..XXXXXXXXXX.XX X",
" oOooXXXXXXXX ......XX........ .",
" XooXXXXXXXX   ..............   ",
"                                ",
" oOOOOOOOOOOOOOOOOOOO   oooooooo",
" OOOOOOOOOOOOOOooOOOOO ooooooXXo",
" OOoooOooOoooOooooOoOO ooXoXXXXX",
" OoOoooooooXoooXXXooXO o.XXXX..X",
" OoooooXooXXXooooooXXX ...XX..XX",
" oOoooXXXXXXXXXXooXXXX .........",
" XooXXXXXXXXXXXXXXXXX   ........",
"                                ",
" oOOOOOOOO   OOOOOOOOOOOO   OOOO",
" OOOOOOoOOO OOOOOOoOOOOOOO OOOoO",
" OOOoOoooOO OOooOooooOooOO OOooo",
" OOooXooooO OoooooXooXoooO OooXo",
" OoOooXoooX XooooXXoooXooX XoooX",
" OooooXXoXX XXoXXXooXoooXX XXooo",
" oOooXXXXXX XXXXXXXXXXoXXX XXXoX",
" XoXXXXXXX   XXXXXXXXXXXX   XXXX",
"                                ",
" oOOOOOOOOOOOOOOOOOO   OOOOOOOOO",
" OOOoOOOOOOOOoOOOoOOO OOOOOOOOoO",
" OOOOoOOOooOoooOoooOO OOooOooooo",
" OoooOXOXooooooXoooXO OXooooooXo",
" oooooXXXXoXXoooooXXX XXXooooXXo",
" XoooXXXXXXXXXXXoXXXX XXXXoXXXXX",
"                                "
};
