/* XPM */
static char *result[] = {
/* columns rows colors chars-per-pixel */
"32 32 5 1 ",
"  c #2F2E2F",
". c #39314B",
"X c #3E2F5A",
"o c #564064",
"O c #85578E",
/* pixels */
"                                ",
"oooooooooooo   OOOOOOOOOOOOOOOo ",
"oooooXooooooo OOOOOOoOOOoOOOOOO ",
"XXoXXXXoXXXoo OOooOoooOooooOoOO ",
"XXXXX.XXXX..o OXXoooooooooooooO ",
"............. XXXXXXooXXXXXoooo ",
"............   XXXXXXXXXXXXXooX ",
"                                ",
"ooo   OOOOOOOOOOOOOOOOOOOOOOOOo ",
"oooo OOOOOOOOOOooOOOOOOOOOOOOOO ",
"oXoo OOooOoooOooooOoOOoOOoOooOO ",
"XX.o OXooooXoooXXoooooooooooOoO ",
"X... XXXooXXXooooooXoXoXooooooo ",
".... XXXXXXXXXXXooXXXXXXXXXoooo ",
"...   XXXXXXXXXXXXXXXXXXXXXXooX ",
"                                ",
"OOOOOOOOOO   OOOOOOOOOOOOOOOOOo ",
"OOOOOOOoOOO OOOOOOoOOOOOOOOOOOO ",
"oOoooOoooOO OOooOooooOooOOOoOOO ",
"oooooXooooO OoooooXooXoooOoOoOO ",
"ooXXooXoooX XooooXXoooXoooooooO ",
"oXXoooXXoXX XXoXXXooXoooXXooooo ",
"XXXXoXXXXXX XXXXXXXXXXoXXXXoooo ",
"XXXXXXXXXX   XXXXXXXXXXXXXXXooX ",
"                                ",
"OOOOO   OOOOOOOOOOOOOOOOOOOOOOo ",
"OOOOOO OOOOOOoOOOoOOOOOOOOOOOOO ",
"oOooOO OOooOoooOoooOoOOOooOOoOO ",
"XoooXO OXooooooXooooooOoooooOOO ",
"oooXXX XXXoXXoooooXXoXooXoooooo ",
"XoXXXX XXXXXXXXXoXXXXXXXXXooooX ",
"                                "
};
