/* XPM */
static char *result[] = {
/* columns rows colors chars-per-pixel */
"32 32 5 1 ",
"  c #2F2E2F",
". c #39314B",
"X c #3E2F5A",
"o c #564064",
"O c #85578E",
/* pixels */
"                                ",
" oOOOOOOOOOO   oooooooooooooo   ",
" OOOOoOOOOOOO ooooooXoooXooooo o",
" OOooooOoooOO ooXXoXXXoXXXXXXo o",
" OooooooooXXO o..XXXXXXXXXX.XX X",
" oOooXXXXXXXX ......XX........ .",
" XooXXXXXXXX   ..............   ",
"                                ",
" oOOOOOOOOOOOOOOOOOOO   oooooooo",
" OOOOOOOOOOOOOOooOOOOO ooooooXXo",
" OOoooOooOoooOooooOoOO ooXoXXXXX",
" OoOoooooooXoooXXXooXO o.XXXX..X",
" OoooooXooXXXooooooXXX ...XX..XX",
" oOoooXXXXXXXXXXooXXXX .........",
" XooXXXXXXXXXXXXXXXXX   ........",
"                                ",
" oOOOOOOOO   oooooooooooo   oooo",
" OOOOOOoOOO ooooooXooooooo oooXo",
" OOOoOoooOO ooXXoXXXXoXXoo ooXXX",
" OOooXooooO oXXXXX.XXXXXXo oXXXX",
" OoOooXoooX .XXXX..XXXXXX. .XXXX",
" OooooXXoXX ..X...XX.XXX.. ..XXX",
" oOooXXXXXX ..........X... ...X.",
" XoXXXXXXX   ............   ....",
"                                ",
" oOOOOOOOOOOOOOOOOOO   ooooooooo",
" OOOoOOOOOOOOoOOOoOOO ooooooooXo",
" OOOOoOOOooOoooOoooOO ooXXoXXXXX",
" OOooOXOXooooooXoooXO o.XXXXXX.X",
" OooooXXXXoXXoooooXXX ...XXXX..X",
" oOooXXXXXXXXXXXoXXXX ....X.....",
" XoXXXXXXXXXXXXXXXXX   ........."
};
