/* XPM */
static char * DorsOpen_xpm[] = {
"32 32 14 1",
" 	c #2F2E2F",
".	c #564064",
"+	c #3E2F5A",
"@	c #39314B",
"#	c #302A3E",
"$	c #1B1E34",
"%	c #6AAF9D",
"&	c #355D68",
"*	c #B5D7C6",
"=	c #FFC27A",
"-	c #FFF7D6",
";	c #C24B6E",
">	c #D9626B",
",	c #EC9A6D",
"                                ",
"............   ..............   ",
".....+....... ......+...+..... .",
"++.++++.+++.. ..++.+++.++++++. .",
"+++++@++++@@. .@@++++++++++@++ +",
"@@@@@@@@@@@@@ @@@@@@++@@@@@@@@ @",
"@@@@@@@@@@@@   @@@@@@@@@@@@@@   ",
"                                ",
"################################",
"################################",
"################################",
"################################",
"################################",
"################################",
"################################",
"################################",
"##########$$$$$$$$$$$$##########",
"#########$%%%%%%%%%%%%$#########",
"########$%&&&&&&&&&&&&%$########",
"########$*$$$$$$$$$$$$&$########",
"#########$$$$=$=$=$$$$$#########",
"#########$$=$-$-$-$=$$$#########",
"#########$=-$$$$$$$-$=$#########",
"#########$=$$$$$$$$$$=$#########",
"#########$=$$$$$$$$$$=$#########",
"#########$=$$$$$$$$$$=$#########",
"#########$=$$$;$;$$$$=$#########",
"#########$=$$;$;$;$$$=$#########",
"#########$=$;$;$;$;$$=$#########",
"#########$=;>;>>>>;>$=$#########",
"#########$=$;>,,,,>;$=$#########",
"#########$=;>,,,,,,>;=$#########"};
