/* XPM */
static char *result[] = {
/* columns rows colors chars-per-pixel */
"32 32 5 1 ",
"  c #2F2E2F",
". c #39314B",
"X c #3E2F5A",
"o c #564064",
"O c #85578E",
/* pixels */
"                                ",
"oooooooooooo   OOOOOOOOOOOOOOOo ",
"oooooXooooooo OOOOOOoOOOoOOOOOO ",
"XXoXXXXoXXXoo OOooOoooOooooOoOO ",
"XXXXX.XXXX..o OXXoooooooooooooO ",
"............. XXXXXXooXXXXXoooo ",
"............   XXXXXXXXXXXXXooX ",
"                                ",
"ooo   OOOOOOOOOOOOOOOOOOOOOOOOo ",
"oooo OOOOOOOOOOooOOOOOOOOOOOOOO ",
"oXoo OOooOoooOooooOoOOoOOoOooOO ",
"XX.o OXooooXoooXXXooooooooooOoO ",
"X... XXXooXXXooooooXXooXoXooooo ",
".... XXXXXXXXXXXooXXXXXXXXXoooo ",
"...   XXXXXXXXXXXXXXXXXXXXXXooX ",
"                                ",
"oooooooooo   OOOOOOOOOOOOOOOOOo ",
"oooooooXooo OOOOOOoOOOOOOOOOOOO ",
"XoXXXoXXXoo OOooOooooOooOOOoOOO ",
"XXXXXXXXXXo OoooooXooXoooOoOoOO ",
"XX..XX.XXX. XooooXXoooXoooooooO ",
"X..XXX..X.. XXoXXXooXoooXXooooo ",
"....X...... XXXXXXXXXXoXXXXoooo ",
"..........   XXXXXXXXXXXXXXXooX ",
"                                ",
"ooooo   OOOOOOOOOOOOOOOOOOOOOOo ",
"oooooo OOOOOOoOOOoOOOOOOOOOOOOO ",
"ooXXoo OOooOoooOoooOOOOOooOOoOO ",
"XXXX.o OXooooooXooooOoOoooooOOO ",
"XXX... XXXoXXoooooXoooooXoooooO ",
".X.... XXXXXXXXXoXXXXXXXXXooooo ",
".....   XXXXXXXXXXXXXXXXXXXXooX "
};
