/* XPM */
static char *result[] = {
/* columns rows colors chars-per-pixel */
"32 32 6 1 ",
"  c #2F2E2F",
". c #39314B",
"X c #3E2F5A",
"o c #564064",
"O c #85578E",
"+ c #BE9BB0",
/* pixels */
"                                ",
"O++++++++++++O O++++++++++++++O ",
"+OOOOOOOOOOOO+ +OOOOOoOOOoOOOO+ ",
"OooOooooOoooOO OOooOoooOooooooO ",
"ooooooXooooXXO OXXooooooooooXoo ",
"XXXXXXXXXXXXXX XXXXXXooXXXXXXXX ",
" XXXXXXXXXXXX   XXXXXXXXXXXXXX  ",
"                                ",
"OOOO   OOOOOOOOOOOOOOO   OOOOOOO",
"OOOOO OOOOOOOOOOooOOOOO OOOOOOoo",
"oOoOO OOooOoooOooooOoOO OOoOoooo",
"oooXO OXooooXoooXXXooXO OXooooXX",
"ooXXX XXXooXXXooooooXXX XXXooXXo",
"XXXXX XXXXXXXXXXXooXXXX XXXXXXXX",
"XXXX   XXXXXXXXXXXXXXX   XXXXXXX",
"                                ",
"ooooooooooo   oooooooooooo   ooo",
"ooooooooXooo ooooooXooooooo oooX",
"XXoXXXoXXXoo ooXXoXXXXoXXoo ooXX",
"XXXXXXXXXXXo oXXXXX.XXXXXXo oXXX",
"XXX..XX.XXX. .XXXX..XXXXXX. .XXX",
"XX..XXX..X.. ..X...XX.XXX.. ..XX",
".....X...... ..........X... ...X",
"...........   ............   ...",
"                                ",
"oooooo   oooooooooooo   oooooooo",
"ooooooo ooooooXoooXooo ooooooooX",
"XooXXoo ooXXoXXXoXXXoo ooXXoXXXX",
"XXXXX.o o.XXXXXXXXXX.o o.XXXXXX.",
"XXXX... ...X..XXXXX... ...XXXX..",
"..X.... .........X.... ....X....",
"......   ............   ........"
};
