/* XPM */
static char *result[] = {
/* columns rows colors chars-per-pixel */
"32 32 6 1 ",
"  c #2F2E2F",
". c #39314B",
"X c #3E2F5A",
"o c #564064",
"O c #85578E",
"+ c #BE9BB0",
/* pixels */
"                                ",
" O++++++++++O O++++++++++++++O O",
" +OOOOOOOOOO+ +OOOOOoOOOoOOOO+ +",
" OOooooOoooOO OOooOoooOooooooO O",
" OooooooooXXO OXXooooooooooXoo o",
" oOooXXXXXXXX XXXXXXooXXXXXXXX X",
" XooXXXXXXXX   XXXXXXXXXXXXXX   ",
"                                ",
" oOOOOOOOOOOOOOOOOOOO   OOOOOOOO",
" OOOOOOOOOOOOOOooOOOOO OOOOOOooO",
" OOoooOooOoooOooooOoOO OOoOooooo",
" OoOoooooooXoooXXXooXO OXooooXXo",
" OoooooXooXXXooooooXXX XXXooXXoo",
" oOoooXXXXXXXXXXooXXXX XXXXXXXXX",
" XooXXXXXXXXXXXXXXXXX   XXXXXXXX",
"                                ",
" oOOOOOOOO   oooooooooooo   oooo",
" OOOOOOoOOO ooooooXooooooo oooXo",
" OOOoOoooOO ooXXoXXXXoXXoo ooXXX",
" OOooXooooO oXXXXX.XXXXXXo oXXXX",
" OoOooXoooX .XXXX..XXXXXX. .XXXX",
" OooooXXoXX ..X...XX.XXX.. ..XXX",
" oOooXXXXXX ..........X... ...X.",
" XoXXXXXXX   ............   ....",
"                                ",
" oOOOOOOOOOOOOOOOOOO   ooooooooo",
" OOOoOOOOOOOOoOOOoOOO ooooooooXo",
" OOOOoOOOooOoooOoooOO ooXXoXXXXX",
" OOooOXOXooooooXoooXO o.XXXXXX.X",
" OooooXXXXoXXoooooXXX ...XXXX..X",
" oOooXXXXXXXXXXXoXXXX ....X.....",
" XoXXXXXXXXXXXXXXXXX   ........."
};
