/* XPM */
static char *result[] = {
/* columns rows colors chars-per-pixel */
"32 32 6 1 ",
"  c #2F2E2F",
". c #39314B",
"X c #3E2F5A",
"o c #564064",
"O c #85578E",
"+ c #BE9BB0",
/* pixels */
"                                ",
"O++++++++++++O O+++++++++++++++O",
"+OOOOOoOOOOOO+ +OOOOOoOOOoOOOOO+",
"OooOooooOoooOO OOooOoooOooooOoOO",
"ooooooXooooXXO OXXoooooooooooooO",
"XXXXXXXXXXXXXX XXXXXXooXXXXXoooo",
" XXXXXXXXXXXX   XXXXXXXXXXXXXooX",
"                                ",
"OOOO   OOOOOOOOOOOOOOOOOOOOOOOOo",
"OOOOO OOOOOOOOOOooOOOOOOOOOOOOOO",
"oOoOO OOooOoooOooooOoOOoOOoOooOO",
"oooXO OXooooXoooXXXooooooooooOoO",
"ooXXX XXXooXXXooooooXXooXoXooooo",
"XXXXX XXXXXXXXXXXooXXXXXXXXXoooo",
"XXXX   XXXXXXXXXXXXXXXXXXXXXXooX",
"                                ",
"ooooooooooo   OOOOOOOOOOOOOOOOOo",
"ooooooooXooo OOOOOOoOOOOOOOOOOOO",
"XXoXXXoXXXoo OOooOooooOooOOOoOOO",
"XXXXXXXXXXXo OoooooXooXoooOoOoOO",
"XXX..XX.XXX. XooooXXoooXoooooooO",
"XX..XXX..X.. XXoXXXooXoooXXooooo",
".....X...... XXXXXXXXXXoXXXXoooo",
"...........   XXXXXXXXXXXXXXXooX",
"                                ",
"oooooo   OOOOOOOOOOOOOOOOOOOOOOo",
"ooooooo OOOOOOoOOOoOOOOOOOOOOOOO",
"XooXXoo OOooOoooOoooOOOOOooOOoOO",
"XXXXX.o OXooooooXooooOoOoooooOOO",
"XXXX... XXXoXXoooooXoooooXoooooO",
"..X.... XXXXXXXXXoXXXXXXXXXooooo",
"......   XXXXXXXXXXXXXXXXXXXXooX"
};
