/* XPM */
static char * health0_xpm[] = {
"64 17 12 1",
" 	c #2F2E2F",
".	c #292929",
"+	c #991111",
"@	c #AD2626",
"#	c #BE9BB0",
"$	c #C23232",
"%	c #85578E",
"&	c #564064",
"*	c #FFD4D4",
"=	c #7A0000",
"-	c #1A1A1A",
";	c #3E2F5A",
"  .....   .....                                                 ",
" .+@@@@.#.$$$$$.#############% %%############% %##############% ",
".+++@@@@.@@$$$$$.%%%&%%%&%%%%# ##%%%%%%%%%%%%# #%%%%%&%%%&%%%%# ",
".++++@@@@@@@**$$.&%&&&%&&&&&&% %%&&%&&&&%&&&%% %%&&%&&&%&&&&&&% ",
".=++++@@@@@@@*$$............................................... ",
".==++++@@@@@@@$$.==--------------------------------------------.",
".===++++@@@@@@@$.===-------------------------------------------.",
"..===++++@@@@@@..====------------------------------------------.",
"...===++++@@@@...=====-----------------------------------------.",
" ...===++++@@...=======----------------------------------------.",
" %...===++++...=========---------------------------------------.",
" %&...===++...===========--------------------------------------.",
" %&&...===......................................................",
" &%&&...=......................................................;",
" ;&&;;.....;;;;;;;;;;   ;;;;;;;;;;;;   ;;;;;;;;;;;;;;;   ;;;;;;;",
"       ...                                                      ",
" &%%%%%%.%   &&&&&&&&&&&&   &&&&&&&&&&&&&&&   &&&&&&&&&&&&   &&&"};
