/* XPM */
static char * mistic3_xpm[] = {
"32 32 14 1",
" 	c #2F2E2F",
".	c #564064",
"+	c #3E2F5A",
"@	c #39314B",
"#	c #302A3E",
"$	c #452A1B",
"%	c #75583D",
"&	c #B91E1D",
"*	c #624630",
"=	c #613B1D",
"-	c #E88A36",
";	c #56351D",
">	c #991817",
",	c #FFFFFF",
"                                ",
"............   ..............   ",
".....+....... ......+...+..... .",
"++.++++.+++.. ..++.+++.++++++. .",
"+++++@++++@@. .@@++++++++++@++ +",
"@@@@@@@@@@@@@ @@@@@@++@@@@@@@@ @",
"@@@@@@@@@@@@   @@@@@@@@@@@@@@   ",
"                                ",
"################################",
"################################",
"################################",
"################################",
"################################",
"################################",
"################################",
"################################",
"########$$$$$$$$$$##############",
"#######$%%&%%%%%%%$$$$$$########",
"#######$*&%%%%%***$=====$#######",
"######$%%&****%%%$======$#######",
"######$%&&-%%%%%%$=;;;;==$######",
"######$%&&&-%%%%$======;;$######",
"#######$&&&-%%%%$========$######",
"########&&&&$$$$$$$$$=====$#####",
"#######>>>>>>,>>>,>,>$$$$$$#####",
"#######$$$$$$&&$$$$&&&&===$#####",
"######$%%%%%**&*%$==&&==;$######",
"######$%%%%%%%%%%$;;&;;==$######",
"######$*****%%%%%$=======$######",
"######$%%%%%%%***$==;;;==$######",
"#######$%%%%%%%%%%$=====$#######",
"########$$$$$$$$$$$$$$$$########"};
