/* XPM */
static char * mistic5_xpm[] = {
"32 32 15 1",
" 	c #2F2E2F",
".	c #564064",
"+	c #3E2F5A",
"@	c #39314B",
"#	c #302A3E",
"$	c #452A1B",
"%	c #75583D",
"&	c #624630",
"*	c #613B1D",
"=	c #E88A36",
"-	c #56351D",
";	c #FFF089",
">	c #B91E1D",
",	c #FFFFFF",
"'	c #991817",
"                                ",
"............   ..............   ",
".....+....... ......+...+..... .",
"++.++++.+++.. ..++.+++.++++++. .",
"+++++@++++@@. .@@++++++++++@++ +",
"@@@@@@@@@@@@@ @@@@@@++@@@@@@@@ @",
"@@@@@@@@@@@@   @@@@@@@@@@@@@@   ",
"                                ",
"################################",
"################################",
"################################",
"################################",
"################################",
"################################",
"################################",
"########$$$$$$$$$$##############",
"#######$%%%%%%%%%%$$$$$$########",
"#######$&&%%%%%&&&$*****$#######",
"######$%%%&&&&%%%$******$#######",
"######$%%%=%%%%%%$*----**$######",
"######$%%=;=%%%%$******--$######",
"#######$$=;=%%%%$********$######",
"######>>,=;=$$$$$$$$$*****$#####",
"#####>>>,'='',''',','$$$$$$#####",
"####>>>$$$$$$>>$$$$>>>>***$#####",
"###>##$%%%%%&&>&%$**>>**-$######",
"######$%%%%%%%%%%$-->--**$######",
"######$&&&&&%%%%%$*******$######",
"######$%%%%%%%&&&$**---**$######",
"#######$%%%%%%%%%%$*****$#######",
"#######$%%%%%%%%%%$*****$#######",
"########$$$$$$$$$$$$$$$$########"};
