/* XPM */
static char * CapyDommage1_xpm[] = {
"32 32 9 1",
" 	c #2F2E2F",
".	c #564064",
"+	c #3E2F5A",
"@	c #39314B",
"#	c #871E51",
"$	c #000000",
"%	c #4F2C14",
"&	c #885B39",
"*	c #D75444",
"                                ",
"............   ..............   ",
".....+....... ......+...+..... .",
"++.++++.+++.. ..++.+++.++++++. .",
"+++++@++++@@. .@@++++++++++@++ +",
"@@@@@@@@@@@@@ @@@@@@++@@@@@@@@ @",
"@@@@@@@@@@@@   @@@@@@@@@@@@@@   ",
"                                ",
"################################",
"################################",
"################################",
"################################",
"################################",
"################################",
"################################",
"################################",
"################################",
"#############$$$$###############",
"#############$%%$###############",
"#####$$$$$$$$$%&$$##############",
"####$$&&******%&*$$$$$$$$$$$####",
"####$&&&**$$***************$####",
"####$&&********************$####",
"####$&*****************&&**$####",
"####$&*********************$####",
"####$$$$$$$$*********&&**&&$####",
"###########$$$*************$####",
"#############$$************$####",
"############$$%%%%$$$$*****$####",
"##########$$$%%%%$$$$$$****$####",
"##########$%%%%$$$##$%%%%%$$####",
"##########$$$$$$####$$$$$$$#####"};
