/* XPM */
static char * Dungeon_Bricks1_xpm[] = {
"32 32 18 1",
" 	c #2F2E2F",
".	c #564064",
"+	c #3E2F5A",
"@	c #39314B",
"#	c #871E51",
"$	c #000000",
"%	c #8F5A41",
"&	c #8F563B",
"*	c #8A563D",
"=	c #8D553A",
"-	c #716F72",
";	c #7F7A81",
">	c #5F3926",
",	c #65402E",
"'	c #633C29",
")	c #8B5439",
"!	c #865036",
"~	c #7D4E37",
"                                ",
"............   ..............   ",
".....+....... ......+...+..... .",
"++.++++.+++.. ..++.+++.++++++. .",
"+++++@++++@@. .@@++++++++++@++ +",
"@@@@@@@@@@@@@ @@@@@@++@@@@@@@@ @",
"@@@@@@@@@@@@   @@@@@@@@@@@@@@   ",
"                                ",
"###$%%&&&&***%%%%&&&&***&===$###",
"###$-;;;;;***%%%%%&&&*;;;;;-$###",
"###$>------;;;;;;;;;;------>$###",
"##$%%%,>>-------------->>'===$##",
"##$%%%&&&>>>>>>>>>>>>>>*&====$##",
"##$%%%&&&****%%%%&&&****&====$##",
"##$%%%&&&&***%%%&&&&&***&&===$##",
"##$%%%&&&&**%%%%&&&&&***&&===$##",
"##$%%%&&&&**%%%%&&&&****&&===$##",
"##$%%%&&&***%%%%&&&&*****&===$##",
"##$%%%&&&***%%%%&&&&*****&===$##",
"##$%%%&&&***%%%%&&&&*****&===$##",
"##$%%%&&&***%%%%&&&&*****&===$##",
"##$%%&&&&&**%%%%&&&&*****===)$##",
"##$%%%&&&&***%%%%&&&****&====$##",
"###$%%&&&&***&%%%&&&****&===$###",
"###$-;;;;;;;*%%%%&&&;;;;;;;-$###",
"###$>>>>--;;;;;;;;;;;;-->>>>$###",
"####$%%>>-------------->>==$####",
"####$%%&!>>>>>>>>>>>>>>~&==$####",
"####$%%%&&****%%%%&&***&&==$####",
"#####$;%&&&***%%%&;;;**&==$#####",
"#####$;;;;;;;;;;;;;;------$#####",
"######$$$$$$$$$$$$$$$$$$$$######"};
